<svg xmlns="http://www.w3.org/2000/svg" xmlns:xlink="http://www.w3.org/1999/xlink" width="500" zoomAndPan="magnify" viewBox="0 0 375 374.999991" height="500" preserveAspectRatio="xMidYMid meet" version="1.0"><defs><clipPath id="657223314c"><path d="M 187.5 0 C 83.945312 0 0 83.945312 0 187.5 C 0 291.054688 83.945312 375 187.5 375 C 291.054688 375 375 291.054688 375 187.5 C 375 83.945312 291.054688 0 187.5 0 Z M 187.5 0 " clip-rule="nonzero"/></clipPath><clipPath id="6664443d40"><path d="M 0 0 L 375 0 L 375 375 L 0 375 Z M 0 0 " clip-rule="nonzero"/></clipPath><clipPath id="7e6fb69035"><path d="M 187.5 0 C 83.945312 0 0 83.945312 0 187.5 C 0 291.054688 83.945312 375 187.5 375 C 291.054688 375 375 291.054688 375 187.5 C 375 83.945312 291.054688 0 187.5 0 Z M 187.5 0 " clip-rule="nonzero"/></clipPath><clipPath id="8c9b448484"><rect x="0" width="375" y="0" height="375"/></clipPath></defs><g clip-path="url(#657223314c)"><g transform="matrix(1, 0, 0, 1, 0, 0)"><g clip-path="url(#8c9b448484)"><g clip-path="url(#6664443d40)"><g clip-path="url(#7e6fb69035)"><rect x="-82.5" width="540" fill="#68869a" height="539.999987" y="-82.499998" fill-opacity="1"/></g></g></g></g></g><path fill="#000000" d="M 223.949219 344.441406 C 296.613281 326.191406 349.730469 261.585938 349.707031 185.921875 C 348.871094 157.277344 340.914062 129.160156 326.089844 104.554688 C 312.617188 82.136719 294.660156 54.984375 271.175781 42.027344 C 207.691406 7.082031 122.121094 21.363281 70.820312 71.277344 C 17.214844 123.449219 8.4375 213.917969 50.136719 276.132812 C 88.3125 333.082031 156.578125 361.355469 223.949219 344.441406 Z M 357.519531 185.921875 C 357.574219 297.628906 248.078125 378.738281 140.882812 351.5 C 82.5 336.671875 35.144531 287.414062 21.363281 228.742188 C 6.289062 164.527344 25.894531 96.550781 77.964844 54.828125 C 127.433594 15.183594 198.066406 3.714844 257.382812 27.042969 C 287.511719 38.902344 307.796875 62.429688 325.464844 88.9375 C 344.90625 118.078125 356.507812 150.765625 357.519531 185.921875 " fill-opacity="1" fill-rule="nonzero"/><path fill="#000000" d="M 334.925781 209.382812 C 335.425781 209.40625 335.660156 216.472656 333.46875 227.597656 C 332.425781 233.175781 330.546875 239.667969 328.199219 246.78125 C 325.699219 253.851562 322.734375 261.453125 318.898438 269.277344 C 317.796875 271.175781 316.730469 273.109375 315.6875 274.976562 C 314.519531 276.777344 313.183594 278.421875 311.984375 280.113281 C 310.816406 281.835938 309.382812 283.300781 308.027344 284.757812 C 306.652344 286.160156 305.429688 287.703125 303.960938 288.925781 C 302.550781 290.183594 301.171875 291.40625 299.847656 292.605469 C 298.515625 293.773438 297.082031 294.761719 295.78125 295.804688 C 293.167969 297.894531 290.589844 299.585938 288.246094 301.171875 C 278.808594 307.351562 272.707031 310.644531 272.375 310.164062 C 272.007812 309.621094 277.566406 305.398438 286.421875 298.652344 C 288.613281 296.929688 291.058594 295.105469 293.480469 292.972656 C 294.714844 291.90625 296.070312 290.882812 297.316406 289.683594 C 298.535156 288.480469 299.816406 287.257812 301.148438 286.003906 C 306.128906 280.800781 311.363281 274.746094 314.964844 267.296875 C 318.664062 259.761719 321.730469 252.203125 324.398438 245.402344 C 326.898438 238.523438 329.035156 232.265625 330.414062 226.898438 C 333.335938 216.238281 334.222656 209.382812 334.925781 209.382812 " fill-opacity="1" fill-rule="nonzero"/><path fill="#000000" d="M 319.730469 228.066406 C 320.277344 228.121094 320.355469 232.289062 318.953125 238.835938 C 318.296875 242.089844 317.097656 245.890625 315.53125 250.039062 C 313.898438 254.160156 311.730469 258.5625 308.996094 262.886719 C 306.171875 267.21875 303.027344 271 299.847656 274.15625 C 296.582031 277.222656 293.378906 279.703125 290.433594 281.347656 C 284.445312 284.78125 280.421875 285.414062 280.1875 284.96875 C 279.875 284.335938 283.710938 282.511719 288.691406 278.757812 C 289.96875 277.800781 291.347656 276.734375 292.703125 275.457031 C 294.136719 274.277344 295.46875 272.800781 296.949219 271.308594 C 299.769531 268.210938 302.628906 264.585938 305.292969 260.519531 C 307.894531 256.429688 310.007812 252.304688 311.808594 248.480469 C 313.496094 244.589844 314.964844 241.046875 315.953125 237.96875 C 318.066406 231.898438 319.074219 227.964844 319.730469 228.066406 " fill-opacity="1" fill-rule="nonzero"/><path fill="#000000" d="M 310.996094 109.609375 C 314.019531 120.636719 315.042969 127.570312 314.519531 127.726562 C 313.863281 127.90625 311.75 121.15625 308.027344 110.554688 C 306.171875 105.253906 303.726562 99.03125 300.261719 92.59375 C 299.328125 91.027344 298.515625 89.304688 297.449219 87.769531 C 296.402344 86.238281 295.3125 84.671875 294.214844 83.082031 C 292.914062 81.515625 291.558594 79.945312 290.179688 78.367188 C 288.902344 76.878906 287.410156 75.414062 285.84375 74.011719 C 273.230469 62.699219 259.703125 54.671875 249.625 50.128906 C 244.566406 47.871094 240.210938 46.480469 237.242188 45.882812 C 235.785156 45.472656 234.507812 45.394531 233.664062 45.203125 C 232.863281 45.058594 232.417969 44.894531 232.417969 44.738281 C 232.417969 44.613281 232.863281 44.460938 233.695312 44.316406 C 234.53125 44.214844 235.753906 44.015625 237.398438 44.191406 C 240.734375 44.292969 245.34375 45.257812 250.769531 47.238281 C 261.605469 51.226562 275.652344 58.972656 288.84375 70.777344 C 290.492188 72.265625 292.023438 73.800781 293.511719 75.523438 C 294.871094 77.136719 296.226562 78.667969 297.503906 80.292969 C 298.691406 82.058594 299.871094 83.804688 300.992188 85.527344 C 302.117188 87.25 302.917969 89.015625 303.828125 90.714844 C 307.273438 97.574219 309.484375 104.085938 310.996094 109.609375 " fill-opacity="1" fill-rule="nonzero"/><path fill="#000000" d="M 302.792969 123.523438 C 305.316406 135.105469 305.917969 142.554688 305.394531 142.609375 C 304.695312 142.609375 303.027344 135.574219 299.769531 124.257812 C 298.203125 118.601562 296.226562 111.898438 292.757812 105.152344 C 291.890625 103.464844 291.011719 101.765625 289.890625 100.128906 C 288.867188 98.40625 287.644531 96.894531 286.421875 95.304688 C 285.246094 93.738281 283.53125 92.039062 282.222656 90.582031 C 280.664062 89.105469 279.097656 87.582031 277.398438 86.148438 C 263.984375 74.535156 249.667969 66.578125 238.988281 62.074219 C 233.621094 59.832031 229.085938 58.339844 225.949219 57.539062 C 222.851562 56.675781 221.003906 56.261719 221.003906 55.941406 C 221.050781 55.664062 222.90625 55.507812 226.238281 55.839844 C 229.628906 56.171875 234.375 57.21875 240.078125 59.152344 C 251.445312 63.066406 266.371094 70.800781 280.296875 82.847656 C 282.042969 84.324219 283.6875 85.914062 285.300781 87.480469 C 286.945312 89.304688 288.324219 90.660156 289.703125 92.484375 C 291.058594 94.285156 292.414062 96.0625 293.457031 97.90625 C 294.601562 99.6875 295.546875 101.550781 296.402344 103.386719 C 299.871094 110.675781 301.59375 117.691406 302.792969 123.523438 " fill-opacity="1" fill-rule="nonzero"/><path fill="#000000" d="M 296.535156 138.25 C 296.667969 141.273438 296.582031 142.898438 296.269531 142.917969 C 295.957031 142.917969 295.46875 141.332031 294.835938 138.519531 C 294.679688 137.808594 294.523438 137.027344 294.347656 136.171875 C 294.15625 135.304688 293.769531 134.429688 293.457031 133.429688 C 292.757812 131.503906 292.289062 129.238281 291.089844 126.949219 C 290.566406 125.769531 290.023438 124.546875 289.445312 123.292969 C 288.867188 122.015625 288.011719 120.8125 287.277344 119.511719 C 285.878906 116.855469 283.84375 114.355469 281.855469 111.621094 C 277.566406 106.410156 272.195312 101.195312 265.9375 96.453125 C 259.605469 91.804688 253.089844 88.058594 246.988281 84.925781 C 240.808594 82.015625 235.132812 79.503906 230.207031 77.835938 C 220.460938 74.34375 214.015625 72.910156 214.167969 72.234375 C 214.28125 71.710938 220.792969 72.054688 231.140625 74.890625 C 236.296875 76.203125 242.265625 78.433594 248.734375 81.28125 C 255.125 84.28125 261.949219 88.082031 268.5625 92.929688 C 275.109375 97.886719 280.6875 103.488281 285.066406 109.144531 C 287.066406 112.089844 289.113281 114.824219 290.457031 117.710938 C 291.167969 119.144531 292.003906 120.457031 292.523438 121.835938 C 293.035156 123.214844 293.511719 124.546875 294.003906 125.824219 C 295.046875 128.328125 295.359375 130.773438 295.859375 132.859375 C 296.035156 133.90625 296.324219 134.839844 296.382812 135.773438 C 296.425781 136.695312 296.480469 137.527344 296.535156 138.25 " fill-opacity="1" fill-rule="nonzero"/><path fill="#000000" d="M 276.886719 134.949219 C 280.265625 143.574219 280.421875 149.386719 279.988281 149.433594 C 279.253906 149.589844 277.976562 144.121094 274.042969 136.21875 C 273.542969 135.230469 272.996094 134.21875 272.453125 133.148438 C 271.875 132.082031 271.175781 131.0625 270.496094 129.9375 C 269.21875 127.703125 267.472656 125.535156 265.785156 123.191406 C 262.160156 118.65625 257.726562 114.011719 252.570312 109.722656 C 247.355469 105.464844 241.933594 101.996094 236.820312 99.164062 C 234.21875 97.828125 231.796875 96.507812 229.375 95.507812 C 227.027344 94.394531 224.761719 93.527344 222.671875 92.75 C 214.414062 89.695312 208.800781 88.550781 208.957031 87.871094 C 209.066406 87.382812 214.667969 87.382812 223.640625 89.804688 C 225.851562 90.40625 228.25 91.128906 230.773438 92.148438 C 233.332031 93.007812 235.941406 94.285156 238.699219 95.5625 C 244.121094 98.328125 249.878906 101.839844 255.359375 106.332031 C 260.804688 110.832031 265.363281 115.835938 269.007812 120.734375 C 270.730469 123.292969 272.429688 125.671875 273.652344 128.117188 C 274.273438 129.316406 274.953125 130.4375 275.476562 131.582031 C 275.976562 132.75 276.441406 133.871094 276.886719 134.949219 " fill-opacity="1" fill-rule="nonzero"/><path fill="#000000" d="M 265.59375 144.820312 C 268.207031 152.277344 268.75 157.125 268.25 157.257812 C 267.605469 157.433594 265.960938 152.933594 262.726562 146.019531 C 259.449219 139.195312 254.257812 129.9375 245.65625 122.457031 C 237.054688 115.011719 227.128906 111.199219 219.90625 108.933594 C 212.691406 106.765625 207.847656 105.808594 207.96875 105.132812 C 208.101562 104.632812 212.847656 104.453125 220.660156 105.910156 C 228.296875 107.476562 239.164062 111.023438 248.523438 119.144531 C 257.882812 127.28125 262.960938 137.472656 265.59375 144.820312 " fill-opacity="1" fill-rule="nonzero"/><path fill="#000000" d="M 256.757812 153.523438 C 259.105469 160.902344 258.269531 165.78125 257.824219 165.726562 C 257.070312 165.726562 256.714844 161.136719 253.871094 154.621094 C 253.503906 153.8125 253.113281 152.976562 252.691406 152.089844 C 252.203125 151.253906 251.703125 150.398438 251.15625 149.488281 C 250.222656 147.632812 248.710938 145.921875 247.402344 143.988281 C 244.433594 140.339844 240.789062 136.605469 236.507812 133.226562 C 232.1875 129.882812 227.707031 127.203125 223.484375 125.035156 C 219.183594 123.082031 215.191406 121.445312 211.703125 120.582031 C 204.921875 118.636719 200.15625 118.546875 200.15625 117.847656 C 200.175781 117.355469 204.710938 116.277344 212.378906 117.535156 C 216.160156 118.058594 220.503906 119.492188 225.171875 121.371094 C 229.761719 123.449219 234.609375 126.183594 239.222656 129.761719 C 243.777344 133.382812 247.613281 137.472656 250.667969 141.542969 C 251.992188 143.699219 253.445312 145.632812 254.359375 147.722656 C 254.859375 148.730469 255.324219 149.722656 255.769531 150.65625 C 256.136719 151.65625 256.449219 152.609375 256.757812 153.523438 " fill-opacity="1" fill-rule="nonzero"/><path fill="#000000" d="M 234.898438 224.007812 C 241.621094 212.484375 250.191406 194.210938 246.699219 180.394531 C 243.210938 166.535156 235.417969 152.933594 223.140625 144.976562 C 201.921875 131.25 172.003906 129.570312 153.320312 148.910156 C 143.496094 159.101562 133.824219 171.09375 133.671875 186.03125 C 133.480469 202.214844 139.582031 218.117188 152.21875 228.742188 C 174.816406 247.75 216.238281 250.582031 234.898438 224.007812 Z M 254.859375 182.195312 C 257.257812 197.34375 249.066406 215.25 241.644531 227.964844 C 241.464844 228.253906 241.253906 228.507812 241.042969 228.722656 C 220.792969 256.429688 175.238281 258.273438 149.71875 236.824219 C 120.421875 212.171875 118.886719 173.339844 145.160156 146.097656 C 168.144531 122.304688 203.199219 120.945312 229.730469 140.152344 C 243.210938 149.910156 252.28125 165.902344 254.859375 182.195312 " fill-opacity="1" fill-rule="nonzero"/><path fill="#000000" d="M 229.339844 195.101562 C 233.097656 174.226562 218.292969 154.933594 197.730469 150.632812 C 175.335938 145.964844 149.742188 157.414062 149.507812 183.242188 C 149.328125 208.003906 166.480469 227.632812 192.074219 227.285156 C 209.28125 225.519531 226.160156 212.925781 229.339844 195.101562 Z M 194.675781 146.074219 C 217.691406 149.15625 236.007812 169.269531 233.695312 192.699219 C 231.640625 213.859375 212.136719 229.132812 192.074219 231.199219 C 165.902344 231.53125 143.328125 210.238281 145.605469 183.242188 C 147.816406 156.988281 169.214844 142.664062 194.675781 146.074219 " fill-opacity="1" fill-rule="nonzero"/><path fill="#000000" d="M 191.652344 188.632812 C 191.6875 187.308594 191.207031 185.164062 189.730469 184.675781 C 187.460938 183.917969 184.828125 185.875 183.9375 187.910156 C 182.683594 190.800781 185.273438 192.15625 187.796875 192.101562 C 189.808594 191.964844 191.609375 190.820312 191.652344 188.632812 Z M 190.484375 180.820312 C 193.796875 181.90625 195.953125 185.488281 195.542969 188.941406 C 195.042969 193.222656 192.019531 195.757812 187.796875 196.011719 C 183.027344 196.089844 178.183594 192.410156 180.058594 187.175781 C 181.4375 183.320312 186.128906 179.386719 190.484375 180.820312 " fill-opacity="1" fill-rule="nonzero"/><path fill="#000000" d="M 167.625 255.539062 C 173.257812 257.226562 176.902344 258.230469 176.824219 258.90625 C 176.769531 259.453125 172.949219 259.550781 166.8125 258.5625 C 160.765625 257.339844 152.53125 254.472656 144.527344 249.335938 C 136.636719 244.046875 130.613281 237.921875 126.734375 233.101562 C 123 228.253906 121.234375 224.941406 121.644531 224.574219 C 122.144531 224.164062 124.855469 226.84375 129.101562 231.066406 C 133.382812 235.15625 139.472656 240.65625 146.929688 245.660156 C 154.519531 250.515625 162.023438 253.605469 167.625 255.539062 " fill-opacity="1" fill-rule="nonzero"/><path fill="#000000" d="M 155.53125 283.378906 C 163.710938 286.601562 169.113281 287.726562 169 288.4375 C 168.957031 288.925781 163.265625 288.871094 154.542969 286.324219 C 150.128906 285.148438 145.160156 283.070312 139.714844 280.511719 C 134.371094 277.824219 128.65625 274.542969 122.976562 270.632812 C 117.355469 266.640625 112.242188 262.496094 107.808594 258.539062 C 103.429688 254.496094 99.628906 250.695312 96.683594 247.304688 C 90.679688 240.5 87.789062 235.8125 88.214844 235.445312 C 89.222656 234.554688 103.328125 251.660156 125.511719 267.007812 C 131.035156 270.808594 136.480469 274.121094 141.5625 276.910156 C 146.71875 279.566406 151.441406 281.867188 155.53125 283.378906 " fill-opacity="1" fill-rule="nonzero"/><path fill="#000000" d="M 136.757812 257.050781 C 153.242188 268.230469 168.636719 274.066406 168.125 275.398438 C 167.933594 275.945312 163.867188 275.035156 157.566406 272.765625 C 151.285156 270.421875 142.816406 266.488281 134.238281 260.675781 C 125.789062 254.726562 119.199219 247.980469 114.976562 242.636719 C 110.984375 237.265625 109.0625 233.621094 109.472656 233.277344 C 109.996094 232.867188 112.84375 235.890625 117.375 240.679688 C 121.988281 245.246094 128.601562 251.339844 136.757812 257.050781 " fill-opacity="1" fill-rule="nonzero"/><path fill="#000000" d="M 140.261719 316.945312 C 150.296875 320.835938 156.941406 322.023438 156.832031 322.757812 C 156.808594 323.222656 149.851562 323.125 139.238281 319.867188 C 136.558594 319.15625 133.769531 317.96875 130.691406 316.84375 C 127.722656 315.535156 124.488281 314.210938 121.289062 312.488281 C 118 310.875 114.640625 308.886719 111.253906 306.863281 C 109.550781 305.765625 107.996094 304.875 106.117188 303.550781 C 104.472656 302.351562 102.804688 301.117188 101.140625 299.894531 C 94.394531 294.949219 88.101562 290.335938 82.246094 285.824219 C 76.453125 280.957031 72.597656 275.476562 69.339844 271.121094 C 66.164062 266.664062 63.472656 263.332031 61.59375 260.984375 C 59.515625 258.71875 58.449219 257.394531 58.648438 257.160156 C 58.859375 256.949219 60.316406 257.863281 62.75 259.707031 C 65.097656 261.773438 68.296875 264.996094 71.785156 269.199219 C 75.332031 273.34375 79.378906 278.402344 84.769531 282.648438 C 90.601562 286.871094 97.015625 291.480469 103.71875 296.351562 C 105.40625 297.574219 107.050781 298.804688 108.695312 300.007812 C 110.097656 301.050781 112.007812 302.164062 113.566406 303.230469 C 116.875 305.296875 120.011719 307.21875 123.15625 308.886719 C 126.257812 310.664062 129.335938 312.078125 132.148438 313.5 C 135.070312 314.734375 137.703125 316.054688 140.261719 316.945312 " fill-opacity="1" fill-rule="nonzero"/><path fill="#000000" d="M 142.761719 296.871094 C 151.097656 300.183594 156.542969 301.675781 156.386719 302.351562 C 156.308594 302.875 150.574219 302.453125 141.738281 299.816406 C 137.316406 298.550781 132.203125 296.539062 126.625 294.0625 C 121.101562 291.480469 115.1875 288.324219 109.273438 284.46875 C 103.40625 280.589844 98.09375 276.445312 93.582031 272.320312 C 89.148438 268.097656 85.367188 264.085938 82.632812 260.308594 C 77.03125 252.804688 75.175781 247.402344 75.597656 247.171875 C 76.222656 246.78125 79.109375 251.761719 85.058594 258.351562 C 87.980469 261.71875 91.859375 265.386719 96.257812 269.296875 C 100.792969 273.109375 105.984375 277.011719 111.699219 280.800781 C 117.421875 284.523438 123.113281 287.679688 128.367188 290.414062 C 133.714844 293.015625 138.558594 295.285156 142.761719 296.871094 " fill-opacity="1" fill-rule="nonzero"/><path fill="#000000" d="M 141.195312 38.222656 C 141.460938 38.800781 134.625 42.238281 123.578125 47.472656 C 120.8125 48.804688 117.789062 50.214844 114.609375 51.882812 C 111.410156 53.441406 108.097656 55.339844 104.628906 57.328125 C 102.828125 58.261719 101.183594 59.464844 99.4375 60.585938 C 97.726562 61.730469 95.871094 62.820312 94.257812 64.210938 C 92.613281 65.53125 90.890625 66.765625 89.203125 68.222656 C 87.578125 69.84375 85.945312 71.457031 84.277344 73.101562 C 77.988281 79.667969 72.496094 86.703125 67.773438 93.140625 C 65.507812 96.472656 63.238281 99.550781 61.394531 102.597656 C 60.429688 104.109375 59.484375 105.574219 58.570312 106.953125 C 57.738281 108.386719 56.9375 109.765625 56.148438 111.066406 C 49.96875 121.523438 46.691406 128.449219 46.066406 128.136719 C 45.589844 127.9375 47.8125 120.65625 53.414062 109.554688 C 54.148438 108.199219 54.871094 106.742188 55.660156 105.253906 C 56.492188 103.796875 57.382812 102.265625 58.292969 100.695312 C 60.039062 97.519531 62.226562 94.285156 64.441406 90.851562 C 69.109375 84.070312 74.519531 76.921875 81.179688 69.945312 C 82.867188 68.332031 84.511719 66.710938 86.144531 65.121094 C 87.890625 63.585938 89.824219 62.199219 91.648438 60.796875 C 93.425781 59.308594 95.324219 58.21875 97.171875 57.039062 C 99.027344 55.917969 100.773438 54.71875 102.617188 53.804688 C 106.25 51.851562 109.6875 50.0625 113.019531 48.59375 C 116.332031 47.058594 119.453125 45.78125 122.324219 44.636719 C 133.769531 40.101562 140.960938 37.703125 141.195312 38.222656 " fill-opacity="1" fill-rule="nonzero"/><path fill="#000000" d="M 119.042969 61.265625 C 119.332031 61.832031 115.476562 64.386719 109.273438 68.300781 C 103.273438 72.523438 95.09375 78.414062 87.457031 86.472656 C 79.867188 94.59375 74.164062 102.988281 69.90625 108.988281 C 65.816406 115.15625 63.105469 118.914062 62.5625 118.601562 C 62.074219 118.289062 63.816406 114.011719 67.230469 107.421875 C 70.875 100.851562 76.320312 91.917969 84.246094 83.449219 C 92.246094 75.023438 101.117188 69.242188 107.683594 65.644531 C 114.429688 62.308594 118.808594 60.742188 119.042969 61.265625 " fill-opacity="1" fill-rule="nonzero"/><path fill="#000000" d="M 106.875 83.414062 C 107.183594 83.992188 105.808594 85.292969 103.640625 87.226562 C 101.503906 89.171875 98.636719 91.917969 95.714844 95.152344 C 92.871094 98.429688 90.558594 101.628906 88.933594 103.929688 C 87.324219 106.375 86.179688 108 85.601562 107.730469 C 85.078125 107.5 85.132812 105.597656 86.101562 102.675781 C 87.167969 99.628906 89.300781 95.828125 92.402344 92.226562 C 95.613281 88.683594 99.105469 86.082031 101.894531 84.671875 C 104.683594 83.257812 106.640625 82.890625 106.875 83.414062 " fill-opacity="1" fill-rule="nonzero"/></svg>