<svg xmlns="http://www.w3.org/2000/svg" xmlns:xlink="http://www.w3.org/1999/xlink" width="500" zoomAndPan="magnify" viewBox="0 0 375 374.999991" height="500" preserveAspectRatio="xMidYMid meet" version="1.0"><defs><clipPath id="18831fc1ad"><path d="M 187.5 0 C 83.945312 0 0 83.945312 0 187.5 C 0 291.054688 83.945312 375 187.5 375 C 291.054688 375 375 291.054688 375 187.5 C 375 83.945312 291.054688 0 187.5 0 Z M 187.5 0 " clip-rule="nonzero"/></clipPath><clipPath id="6ba545411e"><path d="M 0 0 L 375 0 L 375 375 L 0 375 Z M 0 0 " clip-rule="nonzero"/></clipPath><clipPath id="dd69135b23"><path d="M 187.5 0 C 83.945312 0 0 83.945312 0 187.5 C 0 291.054688 83.945312 375 187.5 375 C 291.054688 375 375 291.054688 375 187.5 C 375 83.945312 291.054688 0 187.5 0 Z M 187.5 0 " clip-rule="nonzero"/></clipPath><clipPath id="4d9041bfe7"><rect x="0" width="375" y="0" height="375"/></clipPath><clipPath id="42c0754ab0"><path d="M 45.582031 13.203125 L 343.332031 13.203125 L 343.332031 348.453125 L 45.582031 348.453125 Z M 45.582031 13.203125 " clip-rule="nonzero"/></clipPath><clipPath id="f2d7a5ea7e"><path d="M 45.582031 13.203125 L 343.332031 13.203125 L 343.332031 348.453125 L 45.582031 348.453125 Z M 45.582031 13.203125 " clip-rule="nonzero"/></clipPath></defs><g clip-path="url(#18831fc1ad)"><g transform="matrix(1, 0, 0, 1, 0, 0)"><g clip-path="url(#4d9041bfe7)"><g clip-path="url(#6ba545411e)"><g clip-path="url(#dd69135b23)"><rect x="-82.5" width="540" fill="#ffe05c" height="539.999987" y="-82.499998" fill-opacity="1"/></g></g></g></g></g><g clip-path="url(#42c0754ab0)"><path fill="#030202" d="M 343.273438 212.03125 C 343.253906 210.957031 343.242188 209.871094 343.234375 208.796875 C 343.207031 203.59375 343.308594 198.375 343.222656 193.171875 C 340.191406 193.230469 337.15625 193.265625 334.128906 193.28125 C 329.824219 193.304688 325.511719 193.296875 321.199219 193.292969 C 321.109375 193.296875 321.015625 193.296875 320.929688 193.292969 C 318.941406 193.285156 316.949219 193.28125 314.960938 193.28125 C 315.949219 191.34375 316.808594 189.335938 317.527344 187.289062 C 318 185.972656 318.410156 184.636719 318.773438 183.285156 C 319.160156 181.808594 319.492188 180.308594 319.75 178.804688 C 321.324219 169.707031 320.519531 160.195312 317.347656 151.515625 C 316.371094 149.324219 315.414062 146.648438 313.019531 145.671875 C 309.148438 144.550781 305.113281 145.785156 301.390625 146.910156 C 301.945312 141.496094 302.191406 136.058594 302.152344 130.613281 C 302.023438 121.984375 301.664062 113.355469 301.25 104.738281 C 301.082031 101.289062 300.90625 97.839844 300.734375 94.394531 C 300.648438 92.671875 300.5625 90.945312 300.484375 89.222656 C 300.484375 89.222656 300.484375 89.230469 300.476562 89.230469 C 300.152344 89.726562 299.878906 90.242188 299.636719 90.78125 C 299.519531 91.054688 299.410156 91.328125 299.300781 91.601562 C 298.769531 92.984375 298.386719 94.4375 297.777344 95.785156 C 293.886719 105.238281 290.152344 114.933594 284.246094 123.351562 C 284.078125 121.59375 283.851562 119.824219 283.558594 118.074219 C 282.691406 112.8125 281.269531 107.652344 279.15625 102.75 C 275.621094 94.632812 270.367188 87.261719 263.855469 81.25 C 262.921875 80.382812 261.96875 79.558594 260.992188 78.753906 C 260.992188 78.757812 260.992188 78.757812 260.992188 78.765625 C 261.007812 79.328125 261.03125 79.894531 261.050781 80.457031 C 261.050781 80.464844 261.050781 80.464844 261.050781 80.464844 C 261.113281 82.167969 261.167969 83.871094 261.222656 85.574219 C 261.382812 91.144531 261.421875 96.714844 260.964844 102.265625 C 260.394531 110.191406 258.355469 118.0625 254.652344 125.097656 C 254.355469 125.65625 254.054688 126.214844 253.734375 126.761719 C 253.738281 126.765625 253.738281 126.765625 253.734375 126.765625 C 253.097656 127.867188 252.417969 128.945312 251.699219 130 C 251.523438 130.261719 251.339844 130.523438 251.152344 130.785156 C 250.464844 127.0625 249.871094 123.308594 248.847656 119.652344 C 247.511719 114.238281 245.261719 109.183594 242.53125 104.378906 C 242.277344 103.921875 242.007812 103.46875 241.738281 103.015625 C 241.5625 102.710938 241.371094 102.402344 241.183594 102.097656 C 240.925781 101.671875 240.664062 101.246094 240.394531 100.816406 C 240.023438 100.230469 239.652344 99.648438 239.269531 99.066406 C 239.03125 98.707031 238.792969 98.347656 238.550781 97.984375 C 238.214844 97.484375 237.878906 96.980469 237.523438 96.484375 C 236.152344 94.484375 234.726562 92.523438 233.285156 90.589844 C 232.835938 90.003906 232.386719 89.410156 231.949219 88.808594 C 231.726562 88.503906 231.507812 88.199219 231.296875 87.890625 C 230.871094 87.285156 230.453125 86.671875 230.035156 86.042969 C 230.03125 86.042969 230.03125 86.042969 230.035156 86.039062 C 229.625 85.417969 229.21875 84.789062 228.824219 84.152344 C 228.820312 84.152344 228.824219 84.144531 228.824219 84.144531 C 228.429688 83.511719 228.042969 82.867188 227.671875 82.21875 C 227.292969 81.570312 226.929688 80.914062 226.578125 80.253906 C 222.878906 73.304688 220.417969 65.71875 220.125 57.824219 C 220.148438 54.792969 220.433594 51.773438 220.941406 48.785156 C 221.085938 47.953125 221.238281 47.121094 221.417969 46.292969 C 222.617188 40.601562 224.582031 35.050781 226.996094 29.769531 C 223.957031 30.5 220.976562 31.511719 218.15625 32.847656 C 215.960938 33.886719 213.859375 35.117188 211.90625 36.578125 C 210.953125 37.265625 210.03125 37.988281 209.136719 38.75 C 208.246094 39.5 207.382812 40.292969 206.550781 41.109375 C 206.269531 41.382812 205.996094 41.65625 205.726562 41.933594 C 205.183594 42.488281 204.660156 43.058594 204.140625 43.636719 C 203.105469 44.800781 202.128906 46.007812 201.195312 47.257812 C 200.265625 48.507812 199.390625 49.789062 198.570312 51.105469 C 198.5625 51.105469 198.5625 51.105469 198.5625 51.109375 C 197.53125 52.761719 196.578125 54.460938 195.703125 56.195312 C 193.941406 59.675781 192.492188 63.320312 191.332031 67.011719 C 189.660156 72.46875 188.3125 78.023438 186.324219 83.382812 C 186.203125 83.421875 186.09375 83.433594 186 83.429688 C 185.902344 83.421875 185.820312 83.394531 185.742188 83.351562 C 185.742188 83.351562 185.742188 83.359375 185.734375 83.351562 C 185.59375 83.269531 185.484375 83.132812 185.382812 82.976562 C 185.375 82.972656 185.382812 82.972656 185.382812 82.972656 C 185.339844 82.910156 185.308594 82.839844 185.265625 82.773438 C 185.214844 82.667969 185.164062 82.566406 185.105469 82.464844 C 185.054688 82.363281 185 82.265625 184.941406 82.179688 C 182.230469 77.777344 180.789062 72.921875 179.75 67.9375 C 179.230469 65.4375 178.808594 62.921875 178.375 60.402344 C 177.9375 57.886719 177.492188 55.378906 176.929688 52.921875 C 174.539062 41.953125 169.925781 30.894531 161.148438 23.484375 C 155.691406 18.953125 149.5625 14.957031 142.601562 13.203125 C 142.871094 13.773438 143.144531 14.347656 143.40625 14.925781 C 144.082031 16.359375 144.738281 17.8125 145.367188 19.285156 C 145.492188 19.582031 145.617188 19.875 145.742188 20.167969 C 145.992188 20.753906 146.234375 21.347656 146.472656 21.941406 L 146.472656 21.945312 C 146.714844 22.539062 146.941406 23.136719 147.171875 23.730469 C 149.507812 29.9375 151.140625 36.378906 151.019531 43.039062 C 151.007812 43.3125 150.996094 43.585938 150.980469 43.859375 C 150.945312 44.402344 150.894531 44.945312 150.824219 45.480469 C 150.65625 46.8125 150.378906 48.125 150.039062 49.417969 C 149.902344 49.929688 149.753906 50.445312 149.59375 50.957031 C 147.828125 56.570312 144.800781 61.832031 142.53125 67.242188 C 139.648438 74.246094 137.921875 81.683594 136.90625 89.167969 C 136.648438 91.066406 136.460938 92.96875 136.296875 94.878906 C 136 98.21875 135.753906 101.570312 135.289062 104.886719 C 135.097656 106.3125 134.855469 107.726562 134.558594 109.132812 C 134.507812 109.367188 134.457031 109.601562 134.40625 109.832031 C 134.300781 110.300781 134.1875 110.769531 134.066406 111.234375 C 134.003906 111.46875 133.941406 111.699219 133.878906 111.929688 C 132.101562 109.71875 130.574219 107.320312 129.296875 104.789062 C 129.070312 104.328125 128.847656 103.859375 128.628906 103.394531 C 127.671875 101.285156 126.886719 99.09375 126.300781 96.855469 C 126.101562 96.109375 125.929688 95.355469 125.773438 94.597656 C 125.421875 92.832031 125.179688 91.042969 125.066406 89.242188 C 124.71875 83.121094 125.390625 77.0625 126.386719 71.046875 C 126.578125 69.886719 126.785156 68.726562 126.992188 67.578125 C 127.101562 66.957031 127.21875 66.328125 127.339844 65.707031 C 127.492188 64.886719 127.648438 64.066406 127.800781 63.246094 C 127.910156 62.667969 128.019531 62.09375 128.132812 61.519531 L 128.460938 59.792969 C 128.566406 59.214844 128.675781 58.640625 128.777344 58.0625 C 127.121094 59.1875 125.613281 60.480469 124.199219 61.882812 C 122.582031 63.488281 121.097656 65.234375 119.679688 67.011719 C 119.503906 67.234375 119.332031 67.457031 119.15625 67.679688 C 118.246094 68.835938 117.382812 70.023438 116.5625 71.234375 C 113.007812 76.507812 110.257812 82.320312 108.410156 88.398438 C 106.789062 93.429688 105.796875 98.605469 105.117188 103.824219 C 104.96875 104.988281 104.828125 106.152344 104.703125 107.3125 C 104.453125 109.691406 104.253906 112.066406 104.070312 114.445312 C 104.035156 114.984375 103.996094 115.523438 103.957031 116.0625 C 103.957031 116.058594 103.949219 116.058594 103.949219 116.050781 C 103.257812 114.785156 102.589844 113.507812 101.933594 112.226562 C 101.710938 111.792969 101.496094 111.367188 101.28125 110.933594 C 100.855469 110.074219 100.433594 109.207031 100.007812 108.339844 C 94.570312 97.050781 90.144531 85.28125 84.914062 73.902344 C 84.988281 74.941406 85.085938 75.976562 85.1875 77.015625 C 85.257812 77.710938 85.332031 78.398438 85.40625 79.09375 C 85.480469 79.789062 85.554688 80.484375 85.628906 81.175781 C 85.628906 81.175781 85.628906 81.175781 85.628906 81.183594 C 85.707031 81.878906 85.777344 82.566406 85.84375 83.261719 C 85.878906 83.609375 85.90625 83.957031 85.941406 84.304688 C 86.214844 87.308594 86.371094 90.3125 86.175781 93.304688 C 86.175781 93.34375 86.175781 93.382812 86.171875 93.425781 C 86.113281 94.335938 86.015625 95.242188 85.882812 96.148438 C 85.792969 96.769531 85.691406 97.390625 85.558594 98.007812 C 82.558594 112.023438 78.996094 126.015625 78.449219 140.40625 C 72.417969 131.042969 71.3125 119.589844 70.3125 108.769531 C 68.960938 110.433594 67.703125 112.160156 66.542969 113.949219 C 66.109375 114.597656 65.699219 115.257812 65.300781 115.925781 C 62.300781 120.914062 60.003906 126.292969 58.398438 131.886719 C 58.132812 132.820312 57.886719 133.753906 57.65625 134.695312 C 56.964844 137.527344 56.453125 140.402344 56.109375 143.289062 C 55.996094 144.253906 55.898438 145.222656 55.824219 146.183594 C 55.75 147.15625 55.691406 148.125 55.652344 149.09375 C 55.539062 151.960938 55.589844 154.832031 55.8125 157.6875 C 55.933594 159.695312 56.15625 161.695312 56.46875 163.675781 C 56.601562 164.46875 56.738281 165.257812 56.898438 166.042969 C 56.972656 166.441406 57.058594 166.828125 57.144531 167.222656 C 58.441406 173.105469 60.582031 178.796875 63.4375 184.109375 C 64.007812 185.171875 64.613281 186.21875 65.238281 187.25 C 65.660156 187.933594 66.085938 188.613281 66.527344 189.285156 C 67.414062 190.625 68.351562 191.9375 69.328125 193.207031 C 68.851562 193.222656 68.382812 193.234375 67.910156 193.246094 C 66.417969 193.28125 64.921875 193.292969 63.429688 193.289062 C 61.9375 193.285156 60.441406 193.273438 58.949219 193.257812 C 54.492188 193.210938 50.03125 193.167969 45.582031 193.445312 C 45.875 200.359375 45.664062 207.289062 45.8125 214.214844 C 47.457031 214.246094 49.105469 214.234375 50.757812 214.222656 C 51.878906 214.210938 52.992188 214.203125 54.105469 214.214844 C 54.671875 214.214844 55.234375 214.222656 55.800781 214.234375 C 56.328125 214.246094 56.851562 214.253906 57.378906 214.277344 C 58.210938 214.3125 59.039062 214.359375 59.867188 214.421875 C 63.90625 232.613281 68.367188 250.703125 72.632812 268.847656 C 73.125 270.894531 73.617188 272.945312 74.105469 274.992188 C 75.082031 279.089844 76.050781 283.1875 77.027344 287.285156 C 77.511719 289.335938 78.003906 291.382812 78.5 293.429688 C 79.242188 296.5 79.996094 299.566406 80.761719 302.632812 C 81.273438 304.675781 81.792969 306.714844 82.320312 308.753906 C 83.113281 311.808594 83.925781 314.863281 84.769531 317.910156 C 85.191406 319.167969 85.371094 320.609375 86.351562 321.601562 C 86.488281 321.746094 86.625 321.886719 86.765625 322.023438 C 87.042969 322.296875 87.328125 322.570312 87.621094 322.832031 C 87.910156 323.089844 88.210938 323.339844 88.515625 323.589844 C 88.980469 323.957031 89.453125 324.304688 89.941406 324.628906 C 90.265625 324.84375 90.589844 325.050781 90.929688 325.253906 L 90.933594 325.253906 C 91.265625 325.453125 91.601562 325.644531 91.949219 325.832031 L 91.957031 325.832031 C 92.296875 326.007812 92.648438 326.183594 93 326.351562 C 100.5625 329.847656 110.078125 329.289062 116.8125 324.246094 C 117.109375 324.035156 117.382812 323.808594 117.636719 323.558594 C 117.761719 323.4375 117.882812 323.304688 118 323.175781 C 118.117188 323.042969 118.230469 322.90625 118.339844 322.769531 C 118.773438 322.21875 119.148438 321.617188 119.503906 321.007812 C 119.679688 320.703125 119.851562 320.394531 120.027344 320.085938 C 120.199219 319.777344 120.378906 319.46875 120.554688 319.175781 C 120.644531 319.027344 120.738281 318.878906 120.828125 318.730469 C 121.015625 318.4375 121.210938 318.152344 121.417969 317.886719 C 121.523438 317.75 121.628906 317.617188 121.742188 317.492188 C 132.554688 318.808594 143.273438 320.785156 154.054688 322.371094 C 157.664062 322.945312 161.277344 323.515625 164.886719 324.085938 C 172.113281 325.226562 179.339844 326.367188 186.5625 327.550781 C 190.171875 328.144531 193.777344 328.75 197.386719 329.363281 C 197.460938 329.722656 197.542969 330.082031 197.628906 330.441406 C 197.714844 330.800781 197.804688 331.160156 197.902344 331.519531 C 198 331.878906 198.101562 332.238281 198.203125 332.597656 C 198.421875 333.316406 198.65625 334.019531 198.917969 334.722656 C 199.050781 335.074219 199.191406 335.421875 199.335938 335.765625 C 199.625 336.453125 199.941406 337.132812 200.289062 337.789062 C 200.460938 338.121094 200.644531 338.4375 200.835938 338.757812 C 201.117188 339.238281 201.425781 339.703125 201.746094 340.152344 C 202.921875 341.808594 204.363281 343.265625 206.125 344.40625 C 207.097656 345.027344 208.121094 345.574219 209.171875 346.046875 C 209.703125 346.28125 210.238281 346.503906 210.78125 346.703125 C 214.140625 347.941406 217.773438 348.453125 221.332031 348.140625 C 221.667969 348.109375 222.003906 348.070312 222.339844 348.03125 C 222.679688 347.984375 223.015625 347.933594 223.351562 347.871094 C 224.695312 347.625 226.007812 347.261719 227.289062 346.769531 C 227.621094 346.667969 227.945312 346.554688 228.265625 346.433594 C 229.230469 346.066406 230.167969 345.613281 231.050781 345.085938 C 231.347656 344.90625 231.640625 344.71875 231.921875 344.53125 C 235.0625 342.40625 237.535156 339.304688 238.722656 335.691406 C 238.78125 335.554688 238.832031 335.40625 238.882812 335.253906 C 238.90625 335.179688 238.929688 335.097656 238.953125 335.019531 C 239.132812 334.390625 239.292969 333.707031 239.6875 333.257812 C 239.734375 333.199219 239.789062 333.148438 239.84375 333.105469 C 240.070312 332.902344 240.363281 332.785156 240.746094 332.765625 C 254.21875 329.632812 267.800781 326.988281 281.324219 324.058594 C 282.730469 323.746094 284.148438 323.460938 285.5625 323.1875 C 286.980469 322.90625 288.398438 322.640625 289.8125 322.359375 C 292.648438 321.808594 295.46875 321.214844 298.242188 320.4375 L 298.25 320.4375 C 299.890625 314.757812 301.277344 309.011719 302.710938 303.277344 C 303.183594 301.363281 303.671875 299.453125 304.171875 297.550781 C 310.957031 269.734375 318.28125 242.042969 324.832031 214.175781 C 330.996094 213.972656 337.167969 214.277344 343.320312 213.964844 C 343.304688 213.320312 343.285156 212.675781 343.273438 212.03125 Z M 265.429688 241.671875 C 266.441406 238.171875 267.265625 234.625 268.242188 231.125 L 268.703125 230.8125 C 278.257812 230.824219 287.816406 230.761719 297.375 231 C 296.078125 234.550781 294.855469 238.125 293.71875 241.734375 C 284.289062 241.640625 274.859375 241.820312 265.429688 241.671875 Z M 265.429688 241.671875 " fill-opacity="1" fill-rule="nonzero"/></g><path fill="#030202" d="M 102.65625 61.164062 C 105.546875 59.269531 108.273438 56.617188 108.910156 53.082031 C 109.742188 47.785156 107.601562 42.144531 103.527344 38.667969 C 102.457031 39.808594 101.449219 41.003906 100.507812 42.246094 C 104.039062 47.929688 103.101562 54.84375 102.65625 61.164062 Z M 102.65625 61.164062 " fill-opacity="1" fill-rule="nonzero"/><path fill="#030202" d="M 250.625 81.855469 C 250.230469 78.570312 249.167969 75.410156 248.757812 72.125 C 248.054688 66.867188 247.964844 61.554688 247.816406 56.269531 C 242.46875 60.273438 240.875 67.808594 242.191406 74.082031 C 243.035156 78.140625 246.558594 81.238281 250.625 81.855469 Z M 250.625 81.855469 " fill-opacity="1" fill-rule="nonzero"/><path fill="#f97aa4" d="M 128.5625 136.71875 C 128.933594 137.023438 129.328125 137.304688 129.734375 137.570312 C 129.328125 137.3125 128.933594 137.023438 128.5625 136.71875 Z M 128.5625 136.71875 " fill-opacity="1" fill-rule="nonzero"/><path fill="#f97aa4" d="M 307.980469 193.226562 C 305.816406 193.308594 303.65625 193.34375 301.492188 193.34375 C 300.699219 193.34375 299.90625 193.335938 299.113281 193.328125 C 298.285156 193.324219 297.464844 193.308594 296.644531 193.296875 C 299.839844 186.253906 300.550781 177.945312 298.648438 169.707031 L 296.996094 162.570312 L 292.84375 168.613281 C 292.257812 169.46875 291.726562 170.332031 291.210938 171.167969 C 290.128906 172.941406 289.101562 174.609375 287.757812 175.824219 C 286.292969 177.144531 284.648438 178.296875 282.875 179.238281 C 283.003906 177.132812 282.949219 174.941406 282.441406 172.753906 C 281.128906 166.917969 278.949219 162.417969 275.792969 159.015625 L 271.074219 153.941406 L 270.222656 160.8125 C 270.132812 161.546875 270.082031 162.273438 270.03125 162.976562 C 269.902344 164.773438 269.792969 166.332031 269.101562 167.445312 L 269.085938 167.464844 L 269.074219 167.484375 C 268.417969 168.578125 267.597656 169.609375 266.621094 170.570312 C 265.726562 166.035156 264.335938 161.519531 261.613281 157.503906 L 257.84375 151.933594 L 255.855469 158.359375 L 255.644531 159.046875 C 254.933594 161.386719 254.257812 163.601562 252.84375 165.003906 L 252.8125 165.039062 C 250.4375 167.453125 247.378906 169.449219 243.828125 170.90625 C 243.523438 167.214844 242.9375 163.324219 241.382812 159.621094 C 237.597656 150.398438 230.75 142.503906 222.109375 137.414062 L 214.714844 133.0625 L 217.40625 141.203125 C 218.675781 145.039062 219.84375 149.109375 218.96875 152.957031 L 218.941406 153.070312 L 218.929688 153.1875 C 218.296875 157.378906 215.707031 161.25 212.113281 163.582031 C 209.765625 159.957031 209.597656 155.179688 209.9375 151.539062 C 210.402344 147.429688 211.28125 143.398438 212.210938 139.121094 C 213.882812 131.453125 215.605469 123.515625 214.699219 115.234375 C 213.847656 106 211.914062 97.511719 208.9375 89.988281 L 205.125 80.34375 L 202.792969 90.453125 C 200.078125 102.238281 196.300781 110.726562 190.90625 117.15625 C 187.554688 121.21875 182.378906 126.292969 175.738281 129.082031 C 172.96875 116.621094 169.847656 105.492188 166.21875 95.15625 C 165.96875 94.464844 165.742188 93.796875 165.507812 93.125 C 164.566406 90.390625 163.59375 87.554688 161.972656 84.875 L 157.074219 76.800781 L 156.003906 86.183594 C 154.894531 95.964844 153.390625 107.507812 150.71875 118.90625 C 149.238281 124.417969 146.574219 132.101562 140.492188 135.367188 L 140.457031 135.386719 L 140.410156 135.414062 C 139.28125 136.0625 137.996094 136.390625 136.597656 136.390625 C 133.75 136.390625 130.84375 134.960938 129.179688 132.746094 C 128.414062 131.632812 127.792969 130.332031 127.132812 128.960938 C 126.726562 128.101562 126.308594 127.21875 125.832031 126.339844 L 120.570312 116.652344 L 119.769531 127.640625 C 118.996094 138.382812 118.429688 150.761719 121.300781 162.816406 C 119.597656 160.992188 118.242188 159.046875 117.234375 157 L 117.207031 156.9375 L 117.175781 156.878906 C 114.980469 152.832031 114.34375 148.136719 113.664062 143.167969 L 113.554688 142.367188 L 112.308594 133.292969 L 107.59375 141.152344 C 102.828125 149.078125 100.207031 157.644531 100.003906 165.933594 C 99.976562 166.578125 99.964844 167.214844 99.976562 167.847656 C 98.699219 165.886719 97.609375 163.691406 96.738281 161.308594 L 94.523438 155.261719 L 91 160.652344 C 86.976562 166.808594 85.230469 172.417969 85.660156 177.796875 C 85.945312 183.777344 88.371094 189.113281 90.753906 193.324219 C 86.390625 193.335938 82.023438 193.296875 77.660156 193.273438 C 76.699219 193.402344 76.160156 192.472656 75.613281 191.878906 C 68.539062 183.070312 63.511719 172.488281 61.976562 161.257812 C 60.703125 150.398438 61.796875 139.160156 65.789062 128.945312 C 65.996094 128.320312 66.402344 127.808594 66.816406 127.316406 C 68.558594 134.433594 71.039062 142.015625 76.820312 146.910156 C 79.164062 148.75 81.800781 150.191406 84.566406 151.3125 C 84.339844 144.957031 84.191406 138.574219 84.957031 132.25 C 86.050781 122.273438 88.378906 112.484375 90.671875 102.726562 C 95.890625 114.320312 101.300781 126.101562 109.765625 135.761719 C 109.585938 121.238281 109.488281 106.4375 113.386719 92.320312 C 114.789062 87.265625 116.886719 82.421875 119.363281 77.804688 C 117.945312 88.398438 119.558594 99.4375 124.664062 108.886719 C 127.300781 114.148438 131.273438 118.785156 136.351562 121.832031 C 141.402344 112.113281 141.234375 100.898438 142.683594 90.304688 C 143.714844 82.371094 145.675781 74.519531 148.972656 67.210938 C 151.90625 60.636719 155.453125 54.15625 156.402344 46.921875 C 157.460938 39.863281 156.253906 32.75 154.3125 25.953125 C 161.457031 30.269531 165.890625 37.894531 168.691406 45.53125 C 173.113281 57.632812 172.503906 71.183594 178.535156 82.757812 C 181.03125 87.265625 184.109375 91.417969 187.363281 95.40625 C 192.570312 86.035156 194.546875 75.371094 198.199219 65.386719 C 201.78125 55.644531 207.917969 46.574219 216.644531 40.746094 C 215.222656 47.425781 213.9375 54.257812 214.597656 61.113281 C 214.976562 67.089844 216.703125 72.902344 219.109375 78.363281 C 223.601562 89.820312 232.921875 98.425781 238.445312 109.316406 C 244.472656 120.820312 245.898438 134.046875 245.878906 146.84375 C 249.863281 143.558594 252.757812 139.199219 255.644531 134.980469 C 261.148438 126.808594 264.984375 117.46875 266.265625 107.679688 C 266.875 103.128906 267.203125 98.542969 267.074219 93.949219 C 271.410156 99.726562 274.671875 106.339844 276.375 113.367188 C 278.234375 121.539062 278.8125 129.96875 278.570312 138.335938 C 286.113281 132.5 291.207031 124.167969 295.445312 115.777344 C 296.890625 130.097656 296.570312 144.707031 293.246094 158.765625 C 298.53125 155.472656 303.976562 151.292969 310.503906 151.3125 C 312.5625 154.488281 313.347656 158.261719 314.011719 161.941406 C 315.703125 172.597656 313.859375 184.074219 307.980469 193.226562 Z M 307.980469 193.226562 " fill-opacity="1" fill-rule="nonzero"/><path fill="#f05c89" d="M 248.066406 208.328125 C 182.503906 208.257812 116.9375 208.289062 51.371094 208.285156 C 51.367188 205.339844 51.398438 202.398438 51.398438 199.453125 C 61.214844 199.152344 71.0625 199.542969 80.890625 199.414062 C 136.667969 199.429688 192.449219 199.285156 248.222656 199.441406 C 248.261719 202.402344 248.453125 205.378906 248.066406 208.328125 Z M 248.066406 208.328125 " fill-opacity="1" fill-rule="nonzero"/><path fill="#f05c89" d="M 238.617188 214.292969 C 238.464844 219.066406 237.703125 223.796875 237.117188 228.539062 C 234.480469 253.238281 231.589844 277.910156 228.875 302.601562 C 225.832031 301.636719 222.699219 301.925781 219.617188 302.464844 C 215.589844 301.996094 211.253906 300.457031 207.40625 302.59375 C 200.070312 306.460938 197.457031 315.40625 197.09375 323.140625 C 172.253906 319.449219 147.503906 315.171875 122.636719 311.597656 C 123.152344 306.207031 123.011719 300.613281 120.828125 295.574219 C 118.945312 291.042969 115.679688 286.753906 110.960938 284.960938 C 108.21875 283.867188 105.371094 285.433594 102.570312 284.96875 C 99.503906 284.613281 96.21875 284.570312 93.464844 286.160156 C 89.371094 288.402344 87.011719 292.652344 85.121094 296.734375 C 79.433594 271.992188 73.46875 247.300781 67.71875 222.5625 C 66.894531 219.871094 66.417969 217.089844 65.925781 214.324219 C 115.234375 214.265625 164.542969 214.246094 213.847656 214.242188 C 222.105469 214.164062 230.363281 214.164062 238.617188 214.292969 Z M 238.617188 214.292969 " fill-opacity="1" fill-rule="nonzero"/><g clip-path="url(#f2d7a5ea7e)"><path fill="#030202" d="M 343.273438 212.03125 C 343.253906 210.957031 343.242188 209.871094 343.234375 208.796875 C 343.207031 203.59375 343.308594 198.375 343.222656 193.171875 C 340.191406 193.230469 337.15625 193.265625 334.128906 193.28125 C 329.816406 193.308594 325.503906 193.304688 321.199219 193.292969 C 321.109375 193.296875 321.015625 193.296875 320.929688 193.292969 C 318.9375 193.292969 316.949219 193.285156 314.960938 193.285156 L 314.960938 193.28125 C 315.949219 191.34375 316.808594 189.335938 317.527344 187.289062 C 318 185.972656 318.410156 184.636719 318.773438 183.285156 C 319.160156 181.808594 319.484375 180.308594 319.75 178.804688 C 321.324219 169.707031 320.519531 160.195312 317.347656 151.515625 C 316.371094 149.324219 315.414062 146.648438 313.019531 145.671875 C 309.148438 144.550781 305.113281 145.785156 301.390625 146.910156 C 301.945312 141.496094 302.191406 136.058594 302.152344 130.613281 C 302.023438 121.984375 301.664062 113.355469 301.25 104.738281 C 301.082031 101.289062 300.90625 97.839844 300.734375 94.394531 C 300.648438 92.671875 300.5625 90.949219 300.476562 89.230469 C 300.144531 89.726562 299.871094 90.242188 299.636719 90.78125 C 299.519531 91.054688 299.410156 91.328125 299.300781 91.601562 C 298.769531 92.984375 298.386719 94.4375 297.777344 95.785156 C 293.886719 105.238281 290.152344 114.933594 284.246094 123.351562 C 284.238281 123.351562 284.238281 123.359375 284.238281 123.359375 C 284.066406 121.59375 283.84375 119.824219 283.558594 118.074219 C 282.691406 112.8125 281.269531 107.652344 279.15625 102.75 C 275.621094 94.632812 270.367188 87.261719 263.855469 81.25 C 262.929688 80.394531 261.96875 79.5625 260.992188 78.765625 L 260.988281 78.757812 C 261.003906 79.324219 261.027344 79.894531 261.050781 80.457031 C 261.050781 80.464844 261.050781 80.464844 261.050781 80.464844 C 261.113281 82.167969 261.167969 83.871094 261.222656 85.574219 C 261.382812 91.144531 261.421875 96.714844 260.964844 102.265625 C 260.394531 110.191406 258.355469 118.0625 254.652344 125.097656 C 254.359375 125.660156 254.054688 126.214844 253.734375 126.761719 C 253.738281 126.765625 253.738281 126.765625 253.734375 126.765625 C 253.097656 127.871094 252.425781 128.949219 251.699219 130 C 251.523438 130.261719 251.339844 130.523438 251.152344 130.785156 C 250.460938 127.058594 249.867188 123.3125 248.847656 119.652344 C 247.511719 114.238281 245.261719 109.183594 242.53125 104.378906 C 242.277344 103.921875 242.007812 103.46875 241.738281 103.015625 C 241.554688 102.710938 241.371094 102.402344 241.183594 102.097656 C 240.925781 101.671875 240.664062 101.246094 240.394531 100.816406 C 240.023438 100.230469 239.652344 99.648438 239.269531 99.066406 C 239.03125 98.707031 238.792969 98.347656 238.550781 97.984375 C 238.214844 97.484375 237.871094 96.980469 237.523438 96.484375 C 236.148438 94.488281 234.71875 92.53125 233.28125 90.597656 C 232.828125 90.011719 232.382812 89.410156 231.949219 88.808594 C 231.726562 88.503906 231.507812 88.199219 231.296875 87.890625 C 230.863281 87.28125 230.445312 86.664062 230.035156 86.042969 C 230.03125 86.042969 230.03125 86.042969 230.035156 86.039062 C 229.617188 85.417969 229.21875 84.789062 228.824219 84.152344 C 228.820312 84.152344 228.824219 84.144531 228.824219 84.144531 C 228.425781 83.511719 228.042969 82.867188 227.671875 82.21875 C 227.292969 81.570312 226.929688 80.914062 226.578125 80.253906 C 222.871094 73.304688 220.410156 65.71875 220.121094 57.824219 C 220.144531 54.792969 220.433594 51.773438 220.941406 48.785156 C 221.078125 47.953125 221.238281 47.121094 221.417969 46.292969 C 222.617188 40.601562 224.582031 35.050781 226.996094 29.769531 C 223.957031 30.5 220.976562 31.511719 218.15625 32.847656 C 215.960938 33.890625 213.859375 35.128906 211.90625 36.582031 C 210.953125 37.273438 210.03125 37.996094 209.136719 38.75 C 208.246094 39.507812 207.382812 40.292969 206.550781 41.109375 C 206.269531 41.382812 205.996094 41.65625 205.726562 41.933594 C 205.183594 42.488281 204.660156 43.058594 204.140625 43.636719 C 203.105469 44.800781 202.128906 46.007812 201.195312 47.257812 C 200.273438 48.5 199.390625 49.78125 198.570312 51.105469 C 198.5625 51.105469 198.5625 51.105469 198.5625 51.109375 C 197.53125 52.757812 196.578125 54.457031 195.703125 56.195312 C 193.941406 59.675781 192.492188 63.320312 191.332031 67.011719 C 189.660156 72.46875 188.3125 78.023438 186.324219 83.382812 C 186.085938 83.460938 185.894531 83.4375 185.742188 83.351562 C 185.742188 83.351562 185.742188 83.359375 185.734375 83.351562 C 185.59375 83.273438 185.480469 83.136719 185.382812 82.976562 C 185.375 82.972656 185.382812 82.972656 185.382812 82.972656 C 185.335938 82.910156 185.300781 82.839844 185.265625 82.773438 C 185.210938 82.667969 185.160156 82.5625 185.105469 82.464844 C 185.054688 82.363281 185 82.265625 184.941406 82.179688 C 182.230469 77.777344 180.789062 72.921875 179.75 67.9375 C 179.222656 65.4375 178.800781 62.921875 178.375 60.402344 C 177.9375 57.886719 177.492188 55.378906 176.929688 52.921875 C 174.539062 41.953125 169.925781 30.894531 161.148438 23.484375 C 155.691406 18.953125 149.5625 14.957031 142.601562 13.203125 L 142.59375 13.203125 C 142.863281 13.773438 143.136719 14.347656 143.40625 14.925781 C 144.074219 16.359375 144.730469 17.8125 145.367188 19.285156 C 145.492188 19.582031 145.617188 19.875 145.742188 20.167969 C 145.992188 20.753906 146.234375 21.347656 146.472656 21.941406 L 146.472656 21.945312 C 146.714844 22.539062 146.941406 23.136719 147.171875 23.730469 C 149.507812 29.9375 151.140625 36.378906 151.019531 43.039062 C 151.007812 43.3125 150.996094 43.585938 150.980469 43.859375 C 150.945312 44.402344 150.894531 44.945312 150.824219 45.480469 C 150.65625 46.8125 150.378906 48.125 150.039062 49.417969 C 149.902344 49.929688 149.753906 50.445312 149.59375 50.957031 C 147.828125 56.570312 144.800781 61.832031 142.53125 67.242188 C 139.648438 74.246094 137.921875 81.683594 136.90625 89.167969 C 136.648438 91.066406 136.460938 92.96875 136.296875 94.878906 C 135.992188 98.222656 135.746094 101.570312 135.289062 104.886719 C 135.089844 106.3125 134.855469 107.726562 134.558594 109.132812 C 134.507812 109.367188 134.457031 109.601562 134.40625 109.832031 C 134.300781 110.300781 134.1875 110.769531 134.066406 111.234375 C 134.003906 111.46875 133.941406 111.699219 133.878906 111.929688 C 132.101562 109.71875 130.574219 107.320312 129.296875 104.789062 C 129.066406 104.328125 128.84375 103.859375 128.628906 103.394531 C 127.671875 101.285156 126.886719 99.09375 126.300781 96.855469 C 126.101562 96.109375 125.929688 95.355469 125.773438 94.597656 C 125.414062 92.832031 125.175781 91.042969 125.0625 89.242188 C 124.710938 83.125 125.386719 77.066406 126.386719 71.046875 C 126.574219 69.890625 126.78125 68.734375 126.992188 67.578125 C 127.101562 66.957031 127.21875 66.328125 127.339844 65.707031 C 127.488281 64.886719 127.648438 64.066406 127.800781 63.246094 C 127.910156 62.667969 128.019531 62.09375 128.132812 61.519531 L 128.460938 59.792969 C 128.566406 59.214844 128.675781 58.640625 128.777344 58.0625 C 127.121094 59.1875 125.613281 60.480469 124.199219 61.882812 C 122.582031 63.484375 121.097656 65.230469 119.679688 67.011719 C 119.503906 67.234375 119.328125 67.457031 119.148438 67.679688 C 118.246094 68.835938 117.382812 70.023438 116.5625 71.234375 C 113.007812 76.507812 110.257812 82.320312 108.410156 88.398438 C 106.789062 93.429688 105.796875 98.605469 105.117188 103.824219 C 104.960938 104.988281 104.828125 106.152344 104.703125 107.3125 C 104.453125 109.691406 104.253906 112.066406 104.070312 114.445312 L 103.949219 116.050781 L 103.949219 116.070312 C 103.257812 114.796875 102.585938 113.515625 101.933594 112.226562 C 101.710938 111.792969 101.496094 111.367188 101.28125 110.933594 C 100.847656 110.074219 100.425781 109.207031 100.007812 108.339844 C 94.570312 97.050781 90.144531 85.28125 84.914062 73.902344 C 84.988281 74.941406 85.085938 75.976562 85.1875 77.015625 C 85.257812 77.710938 85.332031 78.398438 85.40625 79.09375 C 85.480469 79.789062 85.554688 80.484375 85.628906 81.175781 C 85.628906 81.175781 85.628906 81.175781 85.628906 81.183594 C 85.707031 81.878906 85.777344 82.566406 85.84375 83.261719 C 85.878906 83.609375 85.90625 83.957031 85.941406 84.304688 C 86.210938 87.308594 86.371094 90.3125 86.175781 93.304688 C 86.175781 93.34375 86.175781 93.382812 86.171875 93.425781 C 86.105469 94.335938 86.015625 95.242188 85.882812 96.148438 C 85.792969 96.769531 85.691406 97.390625 85.558594 98.007812 C 82.558594 112.023438 78.996094 126.015625 78.449219 140.40625 C 72.417969 131.042969 71.3125 119.589844 70.3125 108.769531 C 68.960938 110.433594 67.703125 112.160156 66.542969 113.949219 C 66.109375 114.597656 65.699219 115.257812 65.300781 115.925781 C 62.300781 120.914062 60.003906 126.292969 58.398438 131.886719 C 58.132812 132.820312 57.886719 133.753906 57.65625 134.695312 C 56.964844 137.527344 56.453125 140.402344 56.109375 143.289062 C 55.996094 144.253906 55.898438 145.214844 55.824219 146.183594 C 55.75 147.15625 55.691406 148.125 55.652344 149.09375 C 55.539062 151.960938 55.589844 154.832031 55.8125 157.6875 C 55.933594 159.695312 56.15625 161.695312 56.46875 163.675781 C 56.601562 164.46875 56.738281 165.257812 56.898438 166.042969 C 56.972656 166.441406 57.058594 166.828125 57.144531 167.222656 C 58.433594 173.105469 60.574219 178.804688 63.4375 184.109375 C 64.007812 185.171875 64.609375 186.21875 65.238281 187.25 C 65.660156 187.933594 66.085938 188.613281 66.527344 189.285156 C 67.414062 190.625 68.351562 191.9375 69.328125 193.207031 C 68.851562 193.222656 68.382812 193.234375 67.910156 193.246094 C 64.929688 193.316406 61.933594 193.285156 58.949219 193.257812 C 54.492188 193.210938 50.03125 193.167969 45.582031 193.445312 C 45.875 200.359375 45.664062 207.289062 45.8125 214.214844 C 47.457031 214.246094 49.105469 214.234375 50.757812 214.222656 C 51.871094 214.214844 52.984375 214.210938 54.105469 214.214844 C 54.671875 214.214844 55.234375 214.222656 55.800781 214.234375 C 56.328125 214.246094 56.851562 214.261719 57.378906 214.277344 C 58.210938 214.3125 59.039062 214.359375 59.867188 214.421875 C 63.90625 232.613281 68.367188 250.703125 72.632812 268.847656 C 73.125 270.894531 73.617188 272.945312 74.105469 274.992188 C 75.082031 279.089844 76.050781 283.1875 77.027344 287.285156 C 77.511719 289.335938 78.003906 291.382812 78.5 293.429688 C 79.242188 296.5 79.988281 299.566406 80.761719 302.632812 C 81.273438 304.675781 81.792969 306.714844 82.320312 308.753906 C 83.113281 311.808594 83.925781 314.863281 84.769531 317.910156 C 85.191406 319.167969 85.371094 320.609375 86.351562 321.601562 C 86.488281 321.746094 86.625 321.886719 86.765625 322.023438 C 87.042969 322.296875 87.328125 322.570312 87.621094 322.832031 C 87.910156 323.089844 88.210938 323.339844 88.515625 323.589844 C 88.980469 323.957031 89.453125 324.304688 89.941406 324.628906 C 90.265625 324.84375 90.589844 325.050781 90.929688 325.253906 L 90.933594 325.253906 C 91.265625 325.453125 91.601562 325.644531 91.949219 325.832031 L 91.957031 325.832031 C 92.296875 326.007812 92.648438 326.183594 93 326.351562 C 100.5625 329.847656 110.078125 329.289062 116.8125 324.246094 C 117.109375 324.035156 117.382812 323.808594 117.636719 323.558594 C 117.761719 323.4375 117.882812 323.304688 118 323.175781 C 118.117188 323.042969 118.230469 322.90625 118.339844 322.769531 C 118.773438 322.21875 119.148438 321.617188 119.503906 321.007812 C 119.679688 320.703125 119.851562 320.394531 120.027344 320.085938 C 120.199219 319.777344 120.371094 319.46875 120.554688 319.175781 C 120.644531 319.027344 120.738281 318.878906 120.828125 318.730469 C 121.011719 318.4375 121.210938 318.152344 121.417969 317.886719 C 121.519531 317.75 121.628906 317.617188 121.738281 317.492188 L 121.742188 317.492188 C 132.554688 318.808594 143.273438 320.785156 154.054688 322.371094 C 157.664062 322.945312 161.277344 323.515625 164.886719 324.085938 C 172.113281 325.234375 179.339844 326.371094 186.5625 327.550781 C 190.171875 328.144531 193.777344 328.75 197.386719 329.363281 C 197.460938 329.722656 197.542969 330.082031 197.628906 330.441406 C 197.714844 330.800781 197.804688 331.160156 197.902344 331.519531 C 198 331.878906 198.101562 332.238281 198.203125 332.597656 C 198.414062 333.316406 198.65625 334.019531 198.917969 334.722656 C 199.050781 335.074219 199.191406 335.421875 199.335938 335.765625 C 199.621094 336.453125 199.941406 337.132812 200.289062 337.789062 C 200.460938 338.121094 200.644531 338.4375 200.835938 338.757812 C 201.117188 339.238281 201.421875 339.703125 201.746094 340.152344 C 202.921875 341.808594 204.363281 343.265625 206.125 344.40625 C 207.097656 345.027344 208.121094 345.574219 209.171875 346.046875 C 209.703125 346.285156 210.238281 346.503906 210.78125 346.703125 C 214.140625 347.941406 217.773438 348.453125 221.332031 348.140625 C 221.667969 348.109375 222.003906 348.078125 222.339844 348.03125 C 222.679688 347.984375 223.015625 347.933594 223.351562 347.871094 C 224.695312 347.632812 226.015625 347.273438 227.289062 346.777344 C 227.621094 346.675781 227.945312 346.558594 228.265625 346.433594 C 229.230469 346.070312 230.167969 345.613281 231.050781 345.085938 C 231.347656 344.90625 231.640625 344.71875 231.921875 344.53125 C 235.0625 342.40625 237.535156 339.304688 238.722656 335.691406 C 238.78125 335.554688 238.832031 335.40625 238.882812 335.253906 C 238.90625 335.179688 238.929688 335.097656 238.953125 335.019531 C 239.132812 334.390625 239.292969 333.695312 239.6875 333.257812 C 239.734375 333.195312 239.789062 333.144531 239.84375 333.105469 C 240.070312 332.902344 240.363281 332.785156 240.746094 332.765625 C 254.21875 329.632812 267.800781 326.988281 281.324219 324.058594 C 282.730469 323.746094 284.148438 323.460938 285.5625 323.1875 C 286.980469 322.90625 288.398438 322.640625 289.8125 322.359375 C 292.648438 321.808594 295.46875 321.214844 298.242188 320.4375 C 299.882812 314.761719 301.269531 309.011719 302.710938 303.277344 C 303.183594 301.363281 303.671875 299.453125 304.171875 297.550781 C 310.957031 269.734375 318.28125 242.042969 324.832031 214.175781 C 330.996094 213.972656 337.167969 214.277344 343.320312 213.964844 C 343.304688 213.320312 343.285156 212.675781 343.273438 212.03125 Z M 61.976562 161.253906 C 60.707031 150.398438 61.792969 139.164062 65.789062 128.945312 C 65.996094 128.324219 66.402344 127.804688 66.820312 127.320312 C 68.5625 134.433594 71.039062 142.011719 76.820312 146.910156 C 79.160156 148.75 81.800781 150.191406 84.566406 151.316406 C 84.335938 144.953125 84.1875 138.578125 84.960938 132.25 C 86.050781 122.277344 88.378906 112.484375 90.671875 102.726562 C 95.890625 114.320312 101.300781 126.101562 109.765625 135.761719 C 109.585938 121.238281 109.492188 106.4375 113.386719 92.320312 C 114.792969 87.261719 116.886719 82.425781 119.367188 77.800781 C 117.945312 88.398438 119.558594 99.4375 124.660156 108.886719 C 127.300781 114.148438 131.269531 118.78125 136.351562 121.832031 C 141.402344 112.113281 141.234375 100.898438 142.679688 90.308594 C 143.714844 82.371094 145.675781 74.519531 148.976562 67.210938 C 151.90625 60.632812 155.453125 54.152344 156.402344 46.921875 C 157.464844 39.867188 156.253906 32.746094 154.308594 25.953125 C 161.457031 30.265625 165.886719 37.894531 168.691406 45.53125 C 173.113281 57.632812 172.507812 71.183594 178.535156 82.753906 C 181.027344 87.261719 184.109375 91.417969 187.363281 95.40625 C 192.574219 86.039062 194.542969 75.367188 198.199219 65.386719 C 201.78125 55.640625 207.917969 46.574219 216.640625 40.75 C 215.226562 47.429688 213.941406 54.257812 214.597656 61.113281 C 214.980469 67.085938 216.703125 72.90625 219.109375 78.367188 C 223.597656 89.820312 232.917969 98.429688 238.441406 109.316406 C 244.472656 120.816406 245.898438 134.046875 245.878906 146.847656 C 249.859375 143.558594 252.761719 139.199219 255.644531 134.980469 C 261.148438 126.808594 264.984375 117.472656 266.269531 107.679688 C 266.875 103.125 267.199219 98.542969 267.074219 93.949219 C 271.410156 99.726562 274.671875 106.339844 276.375 113.367188 C 278.230469 121.539062 278.8125 129.96875 278.566406 138.335938 C 286.113281 132.5 291.207031 124.167969 295.445312 115.777344 C 296.890625 130.101562 296.570312 144.703125 293.246094 158.765625 C 298.53125 155.476562 303.980469 151.292969 310.5 151.316406 C 312.5625 154.488281 313.351562 158.261719 314.015625 161.9375 C 315.703125 172.597656 313.859375 184.078125 307.976562 193.222656 C 305.816406 193.308594 303.652344 193.34375 301.492188 193.34375 C 300.699219 193.34375 299.90625 193.339844 299.113281 193.332031 C 298.289062 193.320312 297.46875 193.308594 296.644531 193.296875 C 299.84375 186.253906 300.550781 177.945312 298.644531 169.707031 L 296.992188 162.570312 L 292.847656 168.613281 C 292.257812 169.46875 291.726562 170.328125 291.214844 171.167969 C 290.128906 172.9375 289.101562 174.609375 287.757812 175.824219 C 286.296875 177.144531 284.648438 178.296875 282.875 179.238281 C 283 177.132812 282.949219 174.945312 282.441406 172.75 C 281.132812 166.921875 278.949219 162.417969 275.792969 159.015625 L 271.074219 153.941406 L 270.222656 160.8125 C 270.132812 161.546875 270.078125 162.277344 270.027344 162.976562 C 269.902344 164.773438 269.789062 166.332031 269.101562 167.445312 L 269.085938 167.46875 L 269.074219 167.484375 C 268.417969 168.578125 267.59375 169.609375 266.625 170.570312 C 265.726562 166.039062 264.339844 161.523438 261.613281 157.503906 L 257.84375 151.929688 L 255.859375 158.359375 L 255.644531 159.050781 C 254.933594 161.386719 254.257812 163.601562 252.84375 165.003906 L 252.8125 165.039062 C 250.4375 167.449219 247.375 169.453125 243.828125 170.90625 C 243.527344 167.21875 242.9375 163.324219 241.378906 159.621094 C 237.597656 150.398438 230.75 142.503906 222.109375 137.414062 L 214.714844 133.058594 L 217.40625 141.203125 C 218.675781 145.039062 219.847656 149.109375 218.964844 152.957031 L 218.941406 153.070312 L 218.925781 153.191406 C 218.296875 157.378906 215.710938 161.25 212.113281 163.582031 C 209.765625 159.957031 209.59375 155.179688 209.9375 151.539062 C 210.40625 147.429688 211.277344 143.398438 212.210938 139.125 C 213.882812 131.453125 215.601562 123.519531 214.699219 115.238281 C 213.847656 105.996094 211.914062 97.511719 208.9375 89.988281 L 205.121094 80.34375 L 202.789062 90.453125 C 200.078125 102.242188 196.300781 110.726562 190.90625 117.152344 C 187.558594 121.214844 182.378906 126.292969 175.742188 129.082031 C 172.96875 116.621094 169.847656 105.492188 166.21875 95.15625 C 165.96875 94.46875 165.738281 93.792969 165.511719 93.128906 C 164.566406 90.386719 163.589844 87.554688 161.976562 84.875 L 157.074219 76.796875 L 156 86.1875 C 154.894531 95.964844 153.390625 107.507812 150.71875 118.90625 C 149.238281 124.417969 146.578125 132.101562 140.492188 135.367188 L 140.453125 135.386719 L 140.40625 135.414062 C 139.28125 136.0625 137.996094 136.394531 136.597656 136.394531 C 133.75 136.394531 130.847656 134.964844 129.179688 132.746094 C 128.414062 131.632812 127.789062 130.328125 127.132812 128.960938 C 126.726562 128.101562 126.304688 127.222656 125.832031 126.339844 L 120.570312 116.648438 L 119.773438 127.640625 C 118.996094 138.382812 118.429688 150.761719 121.300781 162.816406 C 119.59375 160.992188 118.242188 159.050781 117.234375 156.996094 L 117.207031 156.933594 L 117.179688 156.878906 C 114.980469 152.832031 114.34375 148.140625 113.664062 143.164062 L 113.558594 142.367188 L 112.3125 133.292969 L 107.59375 141.152344 C 102.832031 149.082031 100.210938 157.640625 100.003906 165.933594 C 99.976562 166.578125 99.964844 167.21875 99.976562 167.84375 C 98.703125 165.890625 97.609375 163.6875 96.738281 161.304688 L 94.519531 155.257812 L 91.003906 160.652344 C 86.980469 166.808594 85.226562 172.421875 85.660156 177.796875 C 85.945312 183.78125 88.375 189.109375 90.757812 193.320312 C 86.394531 193.339844 82.023438 193.296875 77.660156 193.269531 C 76.699219 193.402344 76.164062 192.472656 75.613281 191.878906 C 68.539062 183.074219 63.511719 172.488281 61.976562 161.253906 Z M 103.230469 166.046875 C 103.425781 157.820312 106.136719 149.832031 110.359375 142.804688 C 111.089844 148.117188 111.734375 153.605469 114.335938 158.410156 C 117.148438 164.160156 122.097656 168.554688 127.527344 171.804688 C 126.644531 169.199219 125.636719 166.628906 124.921875 163.96875 C 121.730469 152.222656 122.121094 139.894531 122.992188 127.871094 C 124.203125 130.105469 125.09375 132.523438 126.5625 134.625 C 126.847656 135.015625 127.164062 135.386719 127.5 135.734375 C 127.832031 136.082031 128.183594 136.410156 128.5625 136.71875 C 128.75 136.871094 128.9375 137.015625 129.132812 137.15625 C 129.140625 137.15625 129.140625 137.164062 129.140625 137.164062 C 129.308594 137.289062 129.480469 137.40625 129.664062 137.523438 C 129.835938 137.636719 130.007812 137.746094 130.183594 137.839844 C 130.292969 137.910156 130.40625 137.972656 130.515625 138.03125 C 130.699219 138.136719 130.886719 138.230469 131.074219 138.320312 C 131.253906 138.410156 131.433594 138.492188 131.625 138.570312 C 131.664062 138.589844 131.703125 138.605469 131.742188 138.621094 C 131.933594 138.703125 132.121094 138.777344 132.308594 138.84375 C 132.332031 138.855469 132.355469 138.863281 132.378906 138.867188 C 132.59375 138.945312 132.8125 139.019531 133.027344 139.082031 C 133.257812 139.152344 133.480469 139.214844 133.707031 139.265625 C 134.1875 139.378906 134.679688 139.472656 135.171875 139.527344 C 135.40625 139.558594 135.640625 139.578125 135.878906 139.589844 C 136.117188 139.609375 136.359375 139.613281 136.597656 139.613281 C 138.472656 139.613281 140.34375 139.167969 142.023438 138.199219 C 148.851562 134.535156 151.957031 126.765625 153.847656 119.6875 C 156.410156 108.785156 157.941406 97.660156 159.210938 86.546875 C 161.03125 89.542969 161.992188 92.941406 163.175781 96.21875 C 167.425781 108.328125 170.691406 120.765625 173.359375 133.320312 C 181.367188 131.074219 188.164062 125.546875 193.382812 119.222656 C 200.082031 111.230469 203.625 101.191406 205.9375 91.171875 C 209.011719 98.941406 210.722656 107.25 211.488281 115.554688 C 212.820312 127.691406 208.066406 139.300781 206.730469 151.210938 C 206.183594 156.957031 207 163.410156 211.296875 167.667969 C 216.960938 165.199219 221.195312 159.785156 222.117188 153.667969 C 223.152344 149.105469 221.902344 144.519531 220.46875 140.191406 C 228.464844 144.898438 234.890625 152.289062 238.410156 160.863281 C 240.320312 165.4375 240.613281 170.4375 240.871094 175.320312 C 246.160156 173.839844 251.242188 171.230469 255.117188 167.292969 C 257.285156 165.140625 258.074219 162.128906 258.941406 159.304688 C 262.363281 164.355469 263.460938 170.4375 264.316406 176.351562 C 267.328125 174.558594 270.027344 172.160156 271.84375 169.136719 C 273.3125 166.761719 273.09375 163.867188 273.425781 161.203125 C 276.574219 164.59375 278.300781 169.03125 279.296875 173.480469 C 280.125 177.039062 279.519531 180.695312 279.074219 184.265625 C 283.085938 183.074219 286.832031 181.003906 289.933594 178.207031 C 292.328125 176.027344 293.703125 173.054688 295.503906 170.4375 C 297.265625 178.046875 296.695312 186.226562 293.105469 193.242188 C 288.121094 193.304688 283.136719 193.332031 278.15625 193.332031 C 268.761719 193.332031 259.371094 193.253906 249.96875 193.253906 C 246.753906 193.253906 243.527344 193.257812 240.304688 193.285156 C 221.449219 193.292969 202.609375 193.292969 183.753906 193.292969 L 137.6875 193.292969 C 123.285156 193.292969 108.875 193.292969 94.46875 193.296875 C 91.609375 188.5 89.140625 183.25 88.882812 177.589844 C 88.425781 172.105469 90.773438 166.890625 93.703125 162.414062 C 95.78125 168.089844 99.175781 173.328125 104.117188 176.933594 C 103.671875 173.320312 103.046875 169.703125 103.230469 166.046875 Z M 51.375 208.28125 C 51.363281 205.339844 51.398438 202.394531 51.398438 199.453125 C 61.214844 199.152344 71.0625 199.546875 80.890625 199.414062 C 136.667969 199.429688 192.445312 199.289062 248.222656 199.441406 C 248.261719 202.40625 248.457031 205.382812 248.066406 208.328125 C 182.503906 208.261719 116.9375 208.289062 51.375 208.28125 Z M 105.097656 319.679688 C 103.917969 321.554688 101.589844 323.007812 99.328125 322.195312 C 95.273438 320.882812 92.847656 316.8125 91.847656 312.886719 C 90.628906 307.808594 90.648438 302.324219 92.457031 297.390625 C 92.578125 297.082031 92.710938 296.78125 92.847656 296.476562 C 92.984375 296.175781 93.132812 295.875 93.285156 295.578125 C 93.835938 294.546875 94.492188 293.566406 95.296875 292.726562 C 95.875 292.128906 96.519531 291.609375 97.25 291.195312 C 99.914062 290.3125 102.949219 291.535156 104.585938 293.742188 C 107.015625 297.015625 108.070312 301.128906 108.210938 305.160156 C 108.457031 310.132812 107.902344 315.421875 105.097656 319.679688 Z M 222.128906 333.355469 C 221.125 336.632812 219.148438 340.160156 215.6875 341.289062 C 211.890625 342.148438 208.394531 339.320312 206.492188 336.296875 C 202.78125 330.09375 202.671875 322.257812 204.859375 315.507812 C 205.996094 312.347656 207.917969 308.742188 211.496094 307.945312 C 214.535156 307.3125 216.738281 310.113281 219.230469 311.355469 C 221.523438 312.339844 222.140625 314.855469 222.53125 317.078125 C 223.546875 322.441406 223.5625 328.058594 222.128906 333.355469 Z M 228.875 302.597656 C 225.832031 301.636719 222.695312 301.925781 219.617188 302.46875 C 215.589844 301.996094 211.253906 300.457031 207.40625 302.59375 C 200.070312 306.457031 197.457031 315.40625 197.097656 323.140625 C 172.257812 319.449219 147.5 315.171875 122.640625 311.597656 C 123.152344 306.207031 123.011719 300.609375 120.828125 295.578125 C 118.945312 291.039062 115.675781 286.753906 110.957031 284.960938 C 108.21875 283.863281 105.371094 285.433594 102.574219 284.96875 C 99.507812 284.613281 96.222656 284.570312 93.464844 286.160156 C 89.375 288.402344 87.007812 292.652344 85.117188 296.734375 C 79.4375 271.992188 73.472656 247.296875 67.722656 222.558594 C 66.894531 219.871094 66.417969 217.089844 65.929688 214.324219 C 115.230469 214.265625 164.539062 214.25 213.847656 214.238281 C 222.101562 214.164062 230.367188 214.164062 238.621094 214.296875 C 238.464844 219.066406 237.699219 223.796875 237.117188 228.539062 C 234.484375 253.234375 231.589844 277.910156 228.875 302.597656 Z M 309.679688 251.320312 C 307.46875 260.988281 304.761719 270.527344 302.386719 280.15625 C 299.414062 291.992188 296.542969 303.863281 293.558594 315.695312 C 280.207031 318.683594 266.738281 321.089844 253.367188 323.972656 C 249.304688 324.753906 245.320312 325.871094 241.214844 326.421875 C 241.328125 320.257812 239.8125 313.820312 235.808594 308.984375 C 235.074219 307.996094 233.851562 307.0625 234.246094 305.675781 C 236.273438 290.25 237.730469 274.75 239.5625 259.304688 C 241.363281 244.253906 242.59375 229.132812 244.730469 214.128906 C 260.46875 214.109375 276.203125 214.214844 291.933594 214.210938 C 300.8125 214.25 309.703125 214.089844 318.578125 214.398438 C 315.886719 226.761719 312.570312 238.996094 309.679688 251.320312 Z M 337.398438 208.082031 C 322.460938 208.289062 307.515625 208.113281 292.578125 208.207031 C 279.796875 208.152344 267.007812 208.390625 254.234375 208.167969 C 254.070312 205.257812 254.058594 202.339844 254.277344 199.429688 C 273.921875 199.101562 293.578125 199.621094 313.230469 199.386719 C 321.363281 199.414062 329.507812 199.207031 337.644531 199.453125 C 337.675781 202.328125 337.671875 205.210938 337.398438 208.082031 Z M 337.398438 208.082031 " fill-opacity="1" fill-rule="nonzero"/></g><path fill="#030202" d="M 100.503906 42.246094 C 101.449219 41.003906 102.453125 39.808594 103.527344 38.667969 C 107.597656 42.144531 109.742188 47.785156 108.910156 53.082031 C 108.269531 56.617188 105.546875 59.269531 102.65625 61.164062 C 103.101562 54.84375 104.035156 47.929688 100.503906 42.246094 Z M 100.503906 42.246094 " fill-opacity="1" fill-rule="nonzero"/><path fill="#030202" d="M 242.1875 74.082031 C 240.871094 67.808594 242.464844 60.273438 247.816406 56.269531 C 247.964844 61.554688 248.054688 66.867188 248.757812 72.125 C 249.164062 75.410156 250.230469 78.570312 250.625 81.855469 C 246.558594 81.238281 243.035156 78.140625 242.1875 74.082031 Z M 242.1875 74.082031 " fill-opacity="1" fill-rule="nonzero"/><path fill="#030202" d="M 291.933594 225.109375 C 282.515625 225.164062 273.078125 224.753906 263.671875 225.289062 C 261.734375 232.84375 259.484375 240.308594 257.296875 247.792969 C 267.332031 248.152344 277.375 247.808594 287.414062 247.792969 C 291 247.761719 294.59375 248.054688 298.167969 247.699219 C 300.144531 240.09375 303.242188 232.820312 305.097656 225.183594 C 300.710938 224.929688 296.324219 225.160156 291.933594 225.109375 Z M 293.71875 241.734375 C 284.289062 241.640625 274.859375 241.820312 265.429688 241.671875 C 266.441406 238.171875 267.265625 234.625 268.242188 231.125 L 268.703125 230.8125 C 278.257812 230.824219 287.816406 230.761719 297.375 231 C 296.078125 234.550781 294.855469 238.125 293.71875 241.734375 Z M 293.71875 241.734375 " fill-opacity="1" fill-rule="nonzero"/><path fill="#b73b5e" d="M 254.277344 199.429688 C 273.921875 199.101562 293.582031 199.621094 313.234375 199.382812 C 321.363281 199.414062 329.507812 199.210938 337.640625 199.453125 C 337.679688 202.328125 337.671875 205.210938 337.394531 208.085938 C 322.460938 208.289062 307.515625 208.109375 292.578125 208.207031 C 279.792969 208.148438 267.007812 208.394531 254.238281 208.167969 C 254.070312 205.257812 254.058594 202.339844 254.277344 199.429688 Z M 254.277344 199.429688 " fill-opacity="1" fill-rule="nonzero"/><path fill="#b73b5e" d="M 291.933594 214.210938 C 276.203125 214.214844 260.46875 214.109375 244.730469 214.128906 C 242.59375 229.132812 241.363281 244.253906 239.5625 259.304688 C 237.730469 274.75 236.273438 290.25 234.246094 305.675781 C 233.851562 307.0625 235.074219 307.996094 235.808594 308.984375 C 239.8125 313.820312 241.328125 320.257812 241.214844 326.421875 C 245.320312 325.871094 249.304688 324.753906 253.367188 323.972656 C 266.738281 321.089844 280.207031 318.683594 293.558594 315.695312 C 296.542969 303.863281 299.414062 291.992188 302.386719 280.15625 C 304.761719 270.527344 307.46875 260.988281 309.679688 251.320312 C 312.570312 238.996094 315.886719 226.761719 318.578125 214.398438 C 309.703125 214.089844 300.8125 214.25 291.933594 214.210938 Z M 298.167969 247.699219 C 294.59375 248.054688 291 247.761719 287.414062 247.792969 C 277.375 247.808594 267.332031 248.152344 257.296875 247.792969 C 259.484375 240.308594 261.734375 232.84375 263.671875 225.289062 C 273.078125 224.753906 282.515625 225.164062 291.933594 225.109375 C 296.324219 225.160156 300.710938 224.929688 305.097656 225.183594 C 303.242188 232.820312 300.144531 240.09375 298.167969 247.699219 Z M 298.167969 247.699219 " fill-opacity="1" fill-rule="nonzero"/><path fill="#4fa4c9" d="M 293.101562 193.238281 C 288.121094 193.304688 283.136719 193.328125 278.15625 193.328125 C 268.757812 193.328125 259.367188 193.253906 249.972656 193.253906 C 246.75 193.253906 243.523438 193.257812 240.304688 193.285156 C 221.453125 193.292969 202.605469 193.292969 183.753906 193.292969 L 137.6875 193.292969 C 123.28125 193.292969 108.875 193.292969 94.472656 193.296875 C 91.605469 188.5 89.140625 183.25 88.882812 177.589844 C 88.425781 172.109375 90.773438 166.894531 93.703125 162.410156 C 95.78125 168.089844 99.175781 173.328125 104.113281 176.933594 C 103.667969 173.320312 103.046875 169.699219 103.230469 166.050781 C 103.421875 157.816406 106.140625 149.832031 110.359375 142.804688 C 111.089844 148.121094 111.734375 153.605469 114.335938 158.410156 C 117.152344 164.160156 122.09375 168.554688 127.527344 171.804688 C 126.644531 169.199219 125.636719 166.628906 124.921875 163.96875 C 121.734375 152.222656 122.121094 139.894531 122.992188 127.871094 C 124.203125 130.105469 125.09375 132.519531 126.558594 134.625 C 128.871094 137.738281 132.75 139.613281 136.597656 139.613281 C 138.472656 139.613281 140.34375 139.167969 142.023438 138.203125 C 148.851562 134.535156 151.957031 126.769531 153.847656 119.6875 C 156.410156 108.78125 157.945312 97.660156 159.210938 86.542969 C 161.03125 89.546875 161.992188 92.9375 163.171875 96.21875 C 167.425781 108.332031 170.691406 120.765625 173.355469 133.320312 C 181.367188 131.078125 188.164062 125.546875 193.382812 119.222656 C 200.082031 111.230469 203.625 101.195312 205.9375 91.175781 C 209.007812 98.941406 210.726562 107.25 211.488281 115.558594 C 212.824219 127.691406 208.066406 139.300781 206.730469 151.210938 C 206.183594 156.957031 207 163.410156 211.292969 167.664062 C 216.960938 165.199219 221.195312 159.78125 222.117188 153.671875 C 223.15625 149.105469 221.902344 144.519531 220.472656 140.191406 C 228.46875 144.898438 234.890625 152.292969 238.40625 160.863281 C 240.324219 165.4375 240.613281 170.433594 240.871094 175.324219 C 246.15625 173.839844 251.242188 171.226562 255.113281 167.292969 C 257.285156 165.140625 258.070312 162.125 258.941406 159.304688 C 262.363281 164.355469 263.460938 170.433594 264.320312 176.351562 C 267.324219 174.554688 270.03125 172.160156 271.84375 169.140625 C 273.316406 166.765625 273.097656 163.867188 273.425781 161.207031 C 276.574219 164.59375 278.296875 169.03125 279.296875 173.480469 C 280.125 177.035156 279.523438 180.695312 279.078125 184.261719 C 283.085938 183.070312 286.828125 181.003906 289.933594 178.207031 C 292.328125 176.03125 293.703125 173.054688 295.503906 170.433594 C 297.265625 178.046875 296.699219 186.226562 293.101562 193.238281 Z M 293.101562 193.238281 " fill-opacity="1" fill-rule="nonzero"/><path fill="#38343a" d="M 97.253906 291.195312 C 99.910156 290.3125 102.953125 291.539062 104.585938 293.738281 C 107.019531 297.011719 108.070312 301.125 108.210938 305.160156 C 108.457031 310.136719 107.902344 315.425781 105.101562 319.679688 C 103.914062 321.554688 101.589844 323.011719 99.332031 322.191406 C 95.273438 320.886719 92.84375 316.816406 91.84375 312.886719 C 90.632812 307.8125 90.652344 302.324219 92.457031 297.390625 C 93.433594 294.957031 94.910156 292.515625 97.253906 291.195312 Z M 97.253906 291.195312 " fill-opacity="1" fill-rule="nonzero"/><path fill="#38343a" d="M 211.492188 307.945312 C 214.53125 307.316406 216.742188 310.109375 219.230469 311.355469 C 221.523438 312.339844 222.140625 314.851562 222.53125 317.078125 C 223.550781 322.4375 223.5625 328.058594 222.128906 333.355469 C 221.121094 336.632812 219.148438 340.160156 215.6875 341.289062 C 211.886719 342.152344 208.394531 339.324219 206.492188 336.296875 C 202.78125 330.09375 202.671875 322.257812 204.859375 315.507812 C 205.996094 312.34375 207.917969 308.746094 211.492188 307.945312 Z M 211.492188 307.945312 " fill-opacity="1" fill-rule="nonzero"/></svg>