<svg xmlns="http://www.w3.org/2000/svg" xmlns:xlink="http://www.w3.org/1999/xlink" width="500" zoomAndPan="magnify" viewBox="0 0 375 374.999991" height="500" preserveAspectRatio="xMidYMid meet" version="1.0"><defs><clipPath id="8c42478284"><path d="M 187.5 0 C 83.945312 0 0 83.945312 0 187.5 C 0 291.054688 83.945312 375 187.5 375 C 291.054688 375 375 291.054688 375 187.5 C 375 83.945312 291.054688 0 187.5 0 Z M 187.5 0 " clip-rule="nonzero"/></clipPath><clipPath id="cb5c918c11"><path d="M 0 0 L 375 0 L 375 375 L 0 375 Z M 0 0 " clip-rule="nonzero"/></clipPath><clipPath id="20cbda4b67"><path d="M 187.5 0 C 83.945312 0 0 83.945312 0 187.5 C 0 291.054688 83.945312 375 187.5 375 C 291.054688 375 375 291.054688 375 187.5 C 375 83.945312 291.054688 0 187.5 0 Z M 187.5 0 " clip-rule="nonzero"/></clipPath><clipPath id="aeec366219"><rect x="0" width="375" y="0" height="375"/></clipPath><clipPath id="1a9e1b5c5a"><path d="M 66 50.121094 L 96 50.121094 L 96 104 L 66 104 Z M 66 50.121094 " clip-rule="nonzero"/></clipPath><clipPath id="de48931e8e"><path d="M 18.160156 256 L 46 256 L 46 279 L 18.160156 279 Z M 18.160156 256 " clip-rule="nonzero"/></clipPath><clipPath id="1be2d1aa9b"><path d="M 251 295 L 268 295 L 268 324.621094 L 251 324.621094 Z M 251 295 " clip-rule="nonzero"/></clipPath></defs><g clip-path="url(#8c42478284)"><g transform="matrix(1, 0, 0, 1, 0, 0)"><g clip-path="url(#aeec366219)"><g clip-path="url(#cb5c918c11)"><g clip-path="url(#20cbda4b67)"><rect x="-82.5" width="540" fill="#5ce1e6" height="539.999987" y="-82.499998" fill-opacity="1"/></g></g></g></g></g><path fill="#6f2c91" d="M 128.378906 281.675781 C 128.726562 277.417969 128.523438 273.191406 127.765625 268.988281 C 127.007812 264.785156 125.726562 260.75 123.914062 256.886719 C 121.035156 250.667969 116.523438 244.617188 109.710938 241.503906 C 102.785156 238.34375 94.417969 238.710938 87.222656 240.964844 C 80.023438 243.214844 73.753906 247.152344 67.605469 251.046875 C 68.519531 250.074219 69.359375 249.042969 70.125 247.949219 C 70.886719 246.855469 71.570312 245.710938 72.171875 244.519531 C 72.769531 243.328125 73.285156 242.097656 73.707031 240.832031 C 74.132812 239.566406 74.460938 238.277344 74.703125 236.964844 C 74.941406 235.652344 75.082031 234.328125 75.132812 232.996094 C 75.179688 231.660156 75.132812 230.332031 74.992188 229.003906 C 74.847656 227.679688 74.613281 226.367188 74.28125 225.074219 C 73.949219 223.78125 73.53125 222.519531 73.015625 221.289062 C 68.777344 211.285156 58.328125 203.363281 46.460938 201.164062 C 61.34375 194.28125 72.164062 181.136719 75.007812 166.460938 C 77.847656 151.78125 72.617188 135.859375 61.234375 124.402344 C 61.234375 124.402344 84.277344 142.21875 101.4375 133.761719 C 120.988281 124.136719 112.417969 102.441406 112.417969 102.441406 C 129.453125 119.199219 159.234375 122.820312 182.367188 114.613281 C 190.761719 111.632812 199.121094 106.539062 201.089844 98.761719 C 199.59375 111.300781 210.355469 122.746094 221.855469 130.8125 C 230.953125 137.21875 241.207031 142.730469 252.523438 144.835938 C 263.839844 146.9375 276.363281 145.226562 284.785156 138.59375 C 280.449219 146.769531 278.554688 156.308594 281.527344 165.128906 C 284.496094 173.945312 293.023438 181.746094 303.324219 183.144531 C 293.820312 187.589844 284.535156 193.472656 280.328125 202.1875 C 274.871094 213.550781 279.265625 226.753906 283.710938 238.710938 C 272.378906 237.25 260.207031 235.902344 250.210938 240.449219 C 234.882812 247.410156 231.046875 265.128906 232.109375 280.449219 C 232.109375 280.449219 220.277344 260.6875 200.285156 259.015625 C 180.292969 257.34375 172.945312 288.101562 172.945312 288.101562 C 172.945312 288.101562 153.359375 249.105469 128.378906 281.675781 Z M 128.378906 281.675781 " fill-opacity="1" fill-rule="nonzero"/><path fill="#020202" d="M 127.390625 290.914062 C 127.289062 288.804688 127.480469 286.617188 127.332031 284.5 C 127.222656 282.429688 127 280.367188 126.65625 278.320312 C 125.300781 270.238281 122.265625 262.214844 117.285156 255.6875 C 106.199219 241.023438 87.558594 243.410156 73.226562 251.71875 C 69.628906 253.714844 66.160156 255.980469 62.675781 258.273438 C 62.398438 258.460938 62.097656 258.53125 61.765625 258.484375 C 61.433594 258.441406 61.160156 258.289062 60.945312 258.035156 C 60.730469 257.78125 60.625 257.488281 60.636719 257.152344 C 60.648438 256.820312 60.765625 256.53125 61 256.289062 C 68.84375 247.699219 71.023438 234.402344 66.003906 223.890625 C 64.734375 221.269531 63.15625 218.84375 61.277344 216.617188 C 59.398438 214.390625 57.269531 212.433594 54.898438 210.742188 C 50.113281 207.261719 44.820312 204.96875 39.007812 203.863281 C 38.796875 203.824219 38.601562 203.746094 38.421875 203.632812 C 38.242188 203.515625 38.09375 203.367188 37.972656 203.191406 C 37.851562 203.015625 37.769531 202.824219 37.722656 202.613281 C 37.679688 202.402344 37.675781 202.195312 37.71875 201.984375 C 37.8125 201.4375 38.109375 201.050781 38.609375 200.820312 C 53.367188 193.800781 65.300781 180.109375 68.53125 163.945312 C 71.765625 147.777344 65.875 130.441406 54.523438 118.625 C 54.414062 118.507812 54.332031 118.375 54.269531 118.226562 C 54.210938 118.078125 54.179688 117.925781 54.179688 117.765625 C 54.175781 117.605469 54.203125 117.449219 54.261719 117.296875 C 54.316406 117.148438 54.398438 117.015625 54.507812 116.894531 C 54.613281 116.777344 54.738281 116.679688 54.882812 116.609375 C 55.023438 116.535156 55.175781 116.492188 55.335938 116.476562 C 55.496094 116.460938 55.652344 116.476562 55.808594 116.519531 C 55.960938 116.566406 56.101562 116.636719 56.230469 116.730469 C 57.582031 117.808594 59.085938 118.835938 60.558594 119.804688 C 70.40625 126.128906 83.710938 132.113281 95.5 128.351562 C 110.855469 123.0625 114.980469 108.0625 110.128906 93.621094 C 110.070312 93.464844 110.078125 93.3125 110.152344 93.160156 C 110.222656 93.011719 110.335938 92.910156 110.496094 92.855469 C 110.730469 92.769531 110.9375 92.816406 111.117188 92.992188 C 114.324219 96.132812 117.847656 98.867188 121.683594 101.199219 C 125.515625 103.53125 129.566406 105.398438 133.832031 106.804688 C 140.238281 108.914062 146.808594 110.167969 153.539062 110.5625 C 168.625 111.320312 185.832031 108.445312 198.140625 99.296875 C 199.875 97.945312 201.394531 96.390625 202.707031 94.628906 C 203.992188 92.886719 204.894531 90.960938 205.414062 88.859375 C 205.457031 88.613281 205.582031 88.417969 205.789062 88.273438 C 205.996094 88.132812 206.222656 88.082031 206.46875 88.128906 C 206.714844 88.171875 206.910156 88.296875 207.050781 88.503906 C 207.195312 88.710938 207.242188 88.9375 207.199219 89.183594 C 205.84375 103.859375 218.507812 115.5625 229.464844 123.433594 C 237.324219 128.949219 245.804688 133.738281 254.992188 136.535156 C 266.179688 139.964844 278.832031 140.257812 289.535156 135.121094 C 291.617188 134.113281 293.570312 132.890625 295.382812 131.449219 C 295.695312 131.203125 296.050781 131.082031 296.445312 131.085938 C 296.84375 131.089844 297.195312 131.21875 297.503906 131.46875 C 297.808594 131.71875 298.003906 132.039062 298.085938 132.425781 C 298.167969 132.816406 298.121094 133.1875 297.941406 133.539062 C 290.777344 147.027344 290.832031 163.917969 303.414062 174.054688 C 305.296875 175.621094 307.355469 176.898438 309.589844 177.894531 C 311.824219 178.890625 314.152344 179.5625 316.574219 179.914062 C 316.992188 179.96875 317.347656 180.140625 317.648438 180.433594 C 317.949219 180.726562 318.132812 181.078125 318.195312 181.492188 C 318.261719 181.90625 318.195312 182.296875 318 182.667969 C 317.804688 183.039062 317.515625 183.3125 317.136719 183.492188 C 311.632812 186.15625 306.316406 189.199219 301.75 193.0625 C 291.542969 201.496094 289.039062 212.21875 291.605469 224.785156 C 292.761719 230.710938 294.777344 236.527344 296.851562 242.371094 C 296.941406 242.617188 296.980469 242.871094 296.96875 243.128906 C 296.957031 243.390625 296.898438 243.640625 296.785156 243.878906 C 296.675781 244.113281 296.523438 244.320312 296.328125 244.496094 C 296.136719 244.671875 295.914062 244.804688 295.667969 244.894531 C 295.371094 244.996094 295.066406 245.027344 294.753906 244.988281 C 291.125 244.515625 287.519531 244.0625 283.933594 243.777344 C 280.378906 243.453125 276.824219 243.382812 273.261719 243.566406 C 257.667969 244.351562 247.246094 252.828125 243.003906 267.769531 C 241.132812 274.730469 240.453125 281.808594 240.976562 289 C 240.996094 289.378906 240.898438 289.726562 240.679688 290.039062 C 240.460938 290.351562 240.171875 290.5625 239.804688 290.675781 C 239.441406 290.785156 239.082031 290.773438 238.726562 290.636719 C 238.371094 290.5 238.09375 290.265625 237.898438 289.941406 C 235.964844 286.839844 233.753906 283.957031 231.261719 281.28125 C 225.117188 274.640625 217.269531 269.183594 208.265625 267.449219 C 199.316406 265.535156 192.878906 268.804688 187.199219 275.660156 C 183.140625 280.6875 180.277344 286.59375 178.078125 292.644531 C 177.457031 294.390625 176.882812 296.175781 176.421875 297.933594 C 176.375 298.132812 176.273438 298.296875 176.121094 298.433594 C 175.96875 298.566406 175.792969 298.644531 175.589844 298.667969 C 175.390625 298.691406 175.199219 298.652344 175.019531 298.554688 C 174.839844 298.460938 174.707031 298.320312 174.617188 298.136719 C 173.464844 295.855469 172.15625 293.667969 170.695312 291.570312 C 167.785156 287.390625 164.355469 283.453125 160.128906 280.597656 C 150.300781 273.835938 140.648438 277.21875 132.75 285.023438 L 131.394531 286.375 L 130.082031 287.808594 L 128.820312 289.304688 C 128.371094 289.871094 127.839844 290.398438 127.398438 290.875 Z M 127.519531 290.570312 C 127.878906 290.015625 128.140625 289.515625 128.496094 289.0625 L 129.703125 287.539062 C 132.183594 284.445312 135.058594 281.769531 138.320312 279.515625 C 154.34375 268.796875 168.996094 283.574219 176.347656 297.300781 L 174.542969 297.5 C 175.921875 291.90625 177.953125 286.554688 180.628906 281.453125 C 184.269531 274.648438 189.421875 267.992188 196.949219 265.300781 C 198.871094 264.636719 200.847656 264.265625 202.875 264.183594 C 218.914062 264.292969 232.394531 275.429688 240.753906 288.28125 L 237.675781 289.230469 C 236.832031 276.238281 238.765625 261.871094 247.410156 251.535156 C 253.789062 243.890625 263.304688 240.3125 273.023438 239.765625 C 280.523438 239.257812 287.964844 240.152344 295.34375 241.066406 L 293.246094 243.683594 C 290.96875 237.773438 289.164062 231.71875 287.835938 225.527344 C 283.007812 202.011719 295.714844 189.476562 315.566406 180.074219 L 316.128906 183.648438 C 313.363281 183.234375 310.707031 182.453125 308.160156 181.304688 C 305.609375 180.15625 303.265625 178.679688 301.128906 176.882812 C 292.421875 169.949219 288.277344 158.195312 289.980469 147.304688 C 290.75 141.894531 292.417969 136.78125 294.992188 131.964844 L 297.550781 134.054688 C 287.402344 141.996094 273.71875 143.488281 261.402344 141.210938 C 254.039062 139.691406 247.070312 137.101562 240.503906 133.4375 C 227.265625 125.925781 212.0625 115.054688 206.699219 100.175781 C 205.414062 96.527344 204.996094 92.785156 205.4375 88.945312 L 207.226562 89.269531 C 206.605469 91.59375 205.566406 93.707031 204.105469 95.617188 C 198.363281 102.996094 189.265625 106.59375 180.535156 109.046875 C 156.863281 115.371094 128.230469 111.4375 110.265625 93.777344 L 111.253906 93.140625 C 112.460938 96.648438 113.136719 100.253906 113.28125 103.960938 C 113.730469 113.835938 109.628906 122.367188 101.109375 127.519531 C 95.269531 131.113281 88.933594 131.921875 82.203125 130.957031 C 72.152344 129.347656 62.832031 124.589844 54.640625 118.667969 L 56.34375 116.773438 C 59.410156 119.863281 62.085938 123.265625 64.371094 126.972656 C 66.65625 130.679688 68.488281 134.597656 69.871094 138.726562 C 79.03125 164.878906 64.40625 192.441406 39.996094 203.707031 L 39.597656 200.664062 C 62.464844 205.011719 79.058594 227.855469 68.316406 250.261719 C 66.914062 253.121094 65.132812 255.722656 62.972656 258.0625 L 61.296875 256.082031 C 68.378906 251.570312 75.65625 247.003906 83.839844 244.65625 C 96.886719 240.9375 110.265625 243.304688 118.492188 254.800781 C 125.410156 264.460938 128.480469 276.621094 127.851562 288.410156 L 127.851562 288.804688 C 127.804688 289.398438 127.707031 289.988281 127.566406 290.570312 Z M 127.519531 290.570312 " fill-opacity="1" fill-rule="nonzero"/><path fill="#000000" d="M 144.246094 164.613281 C 141.484375 184.878906 138.433594 203.347656 135.101562 220.027344 C 133.949219 225.277344 132.019531 230.222656 129.3125 234.863281 C 128.84375 235.730469 128.273438 236.523438 127.601562 237.25 C 126.933594 237.972656 126.1875 238.601562 125.359375 239.140625 C 124.53125 239.675781 123.652344 240.101562 122.71875 240.421875 C 121.785156 240.738281 120.828125 240.933594 119.84375 241.011719 C 113.179688 241.753906 107.089844 236.34375 101.582031 224.777344 C 99.507812 220.367188 96.605469 212.023438 92.882812 199.75 C 92.085938 202.085938 91.609375 203.648438 91.449219 204.425781 C 89.632812 210.980469 87.003906 221.097656 83.570312 234.773438 C 83.144531 236.867188 82.195312 238.691406 80.722656 240.238281 C 78.976562 243.847656 75.929688 246.011719 71.578125 246.734375 C 69.109375 247.152344 66.203125 245.386719 62.851562 241.4375 C 59.339844 237.480469 56.199219 232.195312 53.4375 225.582031 C 50.925781 219.601562 46.484375 206.449219 40.117188 186.121094 C 38.988281 182.714844 38.121094 179.242188 37.519531 175.707031 C 37.308594 174.378906 37.40625 173.074219 37.816406 171.796875 C 38.222656 170.515625 38.894531 169.394531 39.835938 168.433594 C 40.816406 167.375 41.957031 166.523438 43.25 165.882812 C 44.542969 165.238281 45.910156 164.847656 47.347656 164.707031 C 53.042969 163.988281 56.929688 166.210938 59.003906 171.382812 C 60.277344 174.6875 61.34375 178.058594 62.203125 181.496094 C 63.671875 187.308594 64.558594 190.726562 64.867188 191.75 C 66.097656 195.558594 68.054688 201.789062 70.730469 210.4375 C 73.203125 199.808594 75.90625 186.640625 78.847656 170.929688 C 80.09375 164.167969 83.699219 160.40625 89.671875 159.648438 C 95.53125 158.914062 99.890625 162.046875 102.75 169.042969 C 104.792969 173.96875 107.128906 180.402344 109.75 188.347656 C 113.589844 199.90625 115.90625 206.777344 116.699219 208.964844 C 116.957031 207.355469 118.945312 191.65625 122.671875 161.867188 C 123.226562 157.429688 126.21875 154.867188 131.644531 154.175781 C 133.097656 153.976562 134.539062 154.027344 135.972656 154.332031 C 137.40625 154.632812 138.746094 155.171875 139.992188 155.941406 C 140.769531 156.335938 141.46875 156.84375 142.082031 157.460938 C 142.699219 158.082031 143.199219 158.78125 143.589844 159.5625 C 143.980469 160.34375 144.234375 161.164062 144.359375 162.027344 C 144.484375 162.894531 144.46875 163.753906 144.316406 164.613281 Z M 144.246094 164.613281 " fill-opacity="1" fill-rule="nonzero"/><path fill="#000000" d="M 171.550781 238.515625 C 161.714844 238.515625 153.253906 235.316406 146.167969 228.921875 C 138.398438 221.925781 134.316406 212.578125 133.925781 200.886719 C 133.804688 198.21875 133.921875 195.5625 134.28125 192.914062 C 134.636719 190.265625 135.226562 187.671875 136.050781 185.128906 C 136.878906 182.589844 137.921875 180.140625 139.1875 177.789062 C 140.453125 175.4375 141.917969 173.214844 143.585938 171.125 C 151.675781 160.847656 162.929688 155.707031 177.355469 155.710938 C 188.003906 155.710938 196.464844 159.742188 202.742188 167.800781 C 208.382812 175.050781 211.203125 184.042969 211.207031 194.773438 C 211.207031 206.460938 207.90625 216.433594 201.308594 224.695312 C 193.925781 233.914062 184.007812 238.519531 171.550781 238.515625 Z M 176.347656 175.652344 C 169.800781 175.597656 164.636719 178.417969 160.859375 184.113281 C 157.667969 188.902344 156.070312 194.492188 156.070312 200.886719 C 156.070312 206.933594 157.875 211.570312 161.480469 214.792969 C 162.851562 216.050781 164.40625 217.011719 166.144531 217.675781 C 167.878906 218.339844 169.679688 218.664062 171.539062 218.640625 C 173.757812 218.679688 175.90625 218.3125 177.988281 217.546875 C 180.066406 216.777344 181.9375 215.65625 183.597656 214.183594 C 187.480469 210.707031 189.554688 206 189.820312 200.054688 C 190.519531 183.835938 186.03125 175.703125 176.347656 175.652344 Z M 176.347656 175.652344 " fill-opacity="1" fill-rule="nonzero"/><path fill="#000000" d="M 310.625 168.71875 C 302.054688 189.460938 293.730469 208.246094 285.644531 225.066406 C 283.035156 230.285156 279.734375 235.019531 275.742188 239.273438 C 272.699219 242.570312 269.074219 243.921875 264.867188 243.332031 C 258.238281 242.378906 253.953125 235.066406 252.015625 221.386719 C 251.296875 216.171875 250.941406 206.566406 250.941406 192.574219 C 249.492188 194.847656 248.570312 196.371094 248.195312 197.160156 C 244.492188 203.601562 238.992188 213.628906 231.695312 227.246094 C 230.699219 229.320312 229.253906 231.003906 227.355469 232.296875 C 226.738281 233.109375 226.027344 233.824219 225.226562 234.449219 C 224.421875 235.070312 223.550781 235.578125 222.613281 235.976562 C 221.679688 236.371094 220.707031 236.636719 219.699219 236.777344 C 218.691406 236.917969 217.683594 236.925781 216.675781 236.804688 C 214.175781 236.601562 211.890625 233.96875 209.824219 228.910156 C 207.597656 223.78125 206.121094 217.355469 205.386719 209.625 C 204.71875 202.632812 204.28125 187.527344 204.078125 164.308594 C 203.980469 160.390625 204.160156 156.480469 204.613281 152.585938 C 204.789062 151.144531 205.253906 149.804688 206.011719 148.566406 C 206.769531 147.328125 207.75 146.304688 208.957031 145.492188 C 210.160156 144.636719 211.476562 144.03125 212.910156 143.679688 C 214.34375 143.332031 215.792969 143.257812 217.253906 143.460938 C 222.949219 144.1875 226.042969 147.570312 226.527344 153.609375 C 226.789062 157.457031 226.835938 161.308594 226.664062 165.160156 C 226.378906 171.699219 226.234375 175.554688 226.230469 176.726562 C 226.3125 181.082031 226.378906 188.195312 226.425781 198.066406 C 231.90625 187.449219 238.347656 174.191406 245.75 158.300781 C 248.90625 151.464844 253.472656 148.425781 259.441406 149.179688 C 265.304688 149.917969 268.589844 154.375 269.304688 162.550781 C 269.832031 168.300781 270.199219 175.738281 270.414062 184.871094 C 270.738281 198.113281 270.960938 206.003906 271.089844 208.542969 C 271.796875 206.90625 278.292969 190.792969 290.574219 160.195312 C 292.378906 155.636719 296.007812 153.703125 301.464844 154.394531 C 302.929688 154.566406 304.3125 155.003906 305.613281 155.703125 C 306.914062 156.40625 308.039062 157.320312 308.988281 158.453125 C 309.964844 159.535156 310.664062 160.777344 311.078125 162.175781 C 311.492188 163.578125 311.585938 164.996094 311.355469 166.4375 C 311.195312 167.226562 310.949219 167.984375 310.625 168.71875 Z M 310.625 168.71875 " fill-opacity="1" fill-rule="nonzero"/><path fill="#ffffff" d="M 145.957031 153.925781 C 143.335938 174.21875 140.445312 192.707031 137.292969 209.390625 C 136.214844 214.613281 134.386719 219.558594 131.816406 224.230469 C 131.390625 225.078125 130.871094 225.859375 130.246094 226.578125 C 129.625 227.292969 128.921875 227.921875 128.140625 228.457031 C 127.359375 228.996094 126.523438 229.425781 125.632812 229.753906 C 124.742188 230.078125 123.824219 230.285156 122.878906 230.378906 C 116.566406 231.121094 110.8125 225.710938 105.613281 214.144531 C 103.644531 209.734375 100.898438 201.390625 97.375 189.117188 C 96.625 191.457031 96.171875 193.015625 96.019531 193.800781 C 94.234375 200.328125 91.726562 210.441406 88.5 224.140625 C 88.105469 226.214844 87.203125 228.035156 85.792969 229.605469 C 84.144531 233.214844 81.257812 235.378906 77.136719 236.105469 C 74.796875 236.515625 72.042969 234.75 68.878906 230.804688 C 65.550781 226.832031 62.578125 221.539062 59.964844 214.921875 C 57.585938 208.9375 53.382812 195.777344 47.347656 175.441406 C 46.273438 172.027344 45.453125 168.554688 44.886719 165.019531 C 44.683594 163.703125 44.773438 162.410156 45.15625 161.132812 C 45.542969 159.859375 46.179688 158.730469 47.078125 157.746094 C 47.980469 156.703125 49.046875 155.859375 50.269531 155.214844 C 51.488281 154.574219 52.789062 154.175781 54.160156 154.019531 C 59.570312 153.296875 63.25 155.519531 65.199219 160.695312 C 66.402344 164.019531 67.414062 167.402344 68.230469 170.84375 C 69.617188 176.652344 70.457031 180.070312 70.746094 181.101562 C 71.917969 184.910156 73.769531 191.140625 76.296875 199.796875 C 78.644531 189.148438 81.203125 175.960938 83.980469 160.242188 C 85.160156 153.480469 88.566406 149.71875 94.207031 148.960938 C 99.753906 148.21875 103.886719 151.347656 106.601562 158.355469 C 108.53125 163.28125 110.738281 169.71875 113.226562 177.675781 C 116.863281 189.230469 119.054688 196.101562 119.804688 198.289062 C 120.046875 196.683594 121.933594 180.980469 125.464844 151.179688 C 125.984375 146.738281 128.8125 144.171875 133.960938 143.484375 C 135.339844 143.285156 136.710938 143.335938 138.070312 143.640625 C 139.433594 143.945312 140.695312 144.480469 141.859375 145.25 C 143.015625 145.945312 143.960938 146.859375 144.695312 147.992188 C 145.429688 149.125 145.878906 150.359375 146.039062 151.699219 C 146.101562 152.445312 146.074219 153.1875 145.957031 153.925781 Z M 145.957031 153.925781 " fill-opacity="1" fill-rule="nonzero"/><path fill="#000000" d="M 76.433594 237.269531 C 73.890625 237.269531 71.117188 235.375 68.003906 231.5 C 64.625 227.441406 61.574219 222.03125 58.929688 215.328125 C 56.546875 209.34375 52.292969 196.03125 46.285156 175.753906 C 45.195312 172.285156 44.363281 168.757812 43.792969 165.167969 C 43.570312 163.699219 43.675781 162.253906 44.105469 160.835938 C 44.535156 159.414062 45.246094 158.152344 46.238281 157.050781 C 47.234375 155.902344 48.402344 154.96875 49.746094 154.257812 C 51.085938 153.546875 52.515625 153.105469 54.023438 152.933594 C 59.96875 152.132812 64.082031 154.617188 66.246094 160.3125 C 67.46875 163.667969 68.492188 167.082031 69.316406 170.558594 C 70.671875 176.339844 71.542969 179.777344 71.828125 180.777344 C 72.800781 183.945312 74.25 188.820312 76.148438 195.285156 C 78.230469 185.472656 80.492188 173.644531 82.914062 160.054688 C 84.179688 152.796875 87.933594 148.699219 94.085938 147.878906 C 100.242188 147.0625 104.738281 150.457031 107.65625 157.972656 C 109.582031 162.902344 111.820312 169.421875 114.304688 177.355469 C 116.515625 184.382812 118.199219 189.707031 119.34375 193.277344 C 120.1875 186.34375 121.878906 172.214844 124.382812 151.066406 C 125.113281 144.847656 129.929688 142.949219 133.851562 142.402344 C 135.359375 142.1875 136.859375 142.246094 138.347656 142.578125 C 139.835938 142.910156 141.21875 143.492188 142.496094 144.328125 C 143.789062 145.113281 144.84375 146.140625 145.664062 147.410156 C 146.484375 148.679688 146.988281 150.066406 147.167969 151.566406 C 147.246094 152.40625 147.21875 153.242188 147.089844 154.074219 C 144.484375 174.25 141.5625 192.925781 138.417969 209.578125 C 137.308594 214.910156 135.445312 219.964844 132.824219 224.738281 C 132.359375 225.667969 131.789062 226.527344 131.109375 227.3125 C 130.429688 228.097656 129.660156 228.789062 128.804688 229.378906 C 127.949219 229.972656 127.035156 230.445312 126.058594 230.804688 C 125.082031 231.164062 124.078125 231.394531 123.042969 231.5 C 116.238281 232.304688 110.035156 226.628906 104.636719 214.644531 C 102.851562 210.640625 100.417969 203.375 97.378906 193 C 97.265625 193.425781 97.183594 193.757812 97.144531 194.007812 L 97.144531 194.089844 C 95.378906 200.609375 92.847656 210.816406 89.628906 224.410156 C 89.203125 226.609375 88.253906 228.554688 86.789062 230.25 C 84.96875 234.117188 81.808594 236.457031 77.378906 237.214844 C 77.066406 237.265625 76.75 237.285156 76.433594 237.269531 Z M 56.0625 154.996094 C 55.476562 154.996094 54.898438 155.039062 54.324219 155.117188 C 53.078125 155.253906 51.90625 155.613281 50.800781 156.199219 C 49.695312 156.78125 48.734375 157.546875 47.921875 158.5 C 47.136719 159.359375 46.574219 160.347656 46.234375 161.464844 C 45.898438 162.582031 45.816406 163.71875 45.996094 164.871094 C 46.554688 168.347656 47.367188 171.765625 48.425781 175.125 C 54.410156 195.335938 58.644531 208.585938 61 214.515625 C 63.554688 220.988281 66.492188 226.230469 69.730469 230.074219 C 72.585938 233.632812 75.074219 235.328125 76.945312 234.996094 C 80.726562 234.320312 83.292969 232.433594 84.792969 229.125 C 84.84375 229.023438 84.90625 228.925781 84.984375 228.84375 C 86.246094 227.414062 87.058594 225.765625 87.417969 223.890625 C 90.636719 210.289062 93.171875 200.074219 94.9375 193.515625 C 95.109375 192.667969 95.5625 191.105469 96.292969 188.746094 C 96.363281 188.511719 96.5 188.324219 96.699219 188.179688 C 96.894531 188.035156 97.117188 187.964844 97.363281 187.96875 C 97.609375 187.972656 97.828125 188.050781 98.019531 188.199219 C 98.214844 188.351562 98.34375 188.542969 98.410156 188.78125 C 101.898438 200.957031 104.652344 209.335938 106.585938 213.683594 C 111.542969 224.683594 116.96875 229.917969 122.71875 229.242188 C 123.578125 229.164062 124.410156 228.976562 125.222656 228.683594 C 126.03125 228.390625 126.792969 228 127.503906 227.511719 C 128.214844 227.023438 128.851562 226.453125 129.417969 225.800781 C 129.980469 225.148438 130.453125 224.433594 130.835938 223.660156 C 133.347656 219.089844 135.140625 214.25 136.203125 209.140625 C 139.335938 192.535156 142.25 173.898438 144.855469 153.765625 C 144.960938 153.121094 144.988281 152.476562 144.9375 151.828125 C 144.796875 150.648438 144.40625 149.558594 143.757812 148.5625 C 143.113281 147.566406 142.277344 146.761719 141.257812 146.15625 C 140.203125 145.457031 139.058594 144.96875 137.828125 144.695312 C 136.59375 144.421875 135.351562 144.375 134.101562 144.558594 C 129.480469 145.179688 127.011719 147.378906 126.554688 151.289062 C 122.988281 181.386719 121.140625 196.808594 120.890625 198.4375 C 120.851562 198.691406 120.738281 198.902344 120.554688 199.078125 C 120.367188 199.25 120.148438 199.347656 119.894531 199.371094 C 119.640625 199.394531 119.40625 199.335938 119.191406 199.195312 C 118.980469 199.058594 118.832031 198.867188 118.746094 198.628906 C 117.996094 196.429688 115.777344 189.484375 112.167969 177.984375 C 109.699219 170.097656 107.480469 163.625 105.566406 158.742188 C 103.027344 152.214844 99.363281 149.367188 94.351562 150.039062 C 89.195312 150.714844 86.160156 154.09375 85.0625 160.414062 C 82.304688 176.0625 79.71875 189.382812 77.386719 199.988281 C 77.332031 200.234375 77.207031 200.4375 77.011719 200.597656 C 76.816406 200.757812 76.59375 200.84375 76.34375 200.851562 C 76.089844 200.859375 75.863281 200.792969 75.660156 200.644531 C 75.453125 200.496094 75.316406 200.304688 75.242188 200.0625 C 72.738281 191.492188 70.875 185.183594 69.695312 181.378906 C 69.390625 180.3125 68.566406 176.9375 67.160156 171.050781 C 66.351562 167.667969 65.355469 164.339844 64.171875 161.070312 C 62.621094 156.992188 59.957031 154.996094 56.0625 154.996094 Z M 145.957031 153.925781 Z M 145.957031 153.925781 " fill-opacity="1" fill-rule="nonzero"/><path fill="#ffffff" d="M 171.804688 227.863281 C 169.582031 227.898438 167.378906 227.714844 165.195312 227.3125 C 163.007812 226.910156 160.886719 226.296875 158.820312 225.472656 C 156.757812 224.648438 154.796875 223.628906 152.933594 222.417969 C 151.074219 221.203125 149.351562 219.820312 147.765625 218.265625 C 140.40625 211.257812 136.550781 201.90625 136.199219 190.214844 C 136.078125 187.5625 136.183594 184.921875 136.515625 182.292969 C 136.851562 179.660156 137.40625 177.074219 138.1875 174.539062 C 138.964844 172.003906 139.957031 169.554688 141.15625 167.1875 C 142.359375 164.824219 143.753906 162.578125 145.34375 160.453125 C 153.007812 150.171875 163.667969 145.03125 177.320312 145.03125 C 187.398438 145.03125 195.414062 149.0625 201.359375 157.125 C 206.695312 164.386719 209.367188 173.382812 209.375 184.113281 C 209.375 195.808594 206.25 205.789062 200 214.050781 C 193.003906 223.261719 183.605469 227.867188 171.804688 227.863281 Z M 176.335938 164.957031 C 170.15625 164.917969 165.265625 167.742188 161.65625 173.433594 C 158.632812 178.222656 157.121094 183.816406 157.125 190.214844 C 157.125 196.261719 158.835938 200.898438 162.257812 204.128906 C 163.53125 205.375 164.988281 206.332031 166.640625 207 C 168.292969 207.667969 170.007812 207.996094 171.789062 207.984375 C 173.910156 208.011719 175.957031 207.636719 177.929688 206.867188 C 179.90625 206.09375 181.660156 204.976562 183.199219 203.519531 C 186.878906 200.042969 188.84375 195.328125 189.097656 189.382812 C 189.773438 173.15625 185.523438 165.019531 176.347656 164.964844 Z M 176.335938 164.957031 " fill-opacity="1" fill-rule="nonzero"/><path fill="#000000" d="M 171.804688 228.972656 C 169.511719 229.003906 167.238281 228.808594 164.984375 228.390625 C 162.730469 227.976562 160.542969 227.339844 158.414062 226.492188 C 156.285156 225.640625 154.261719 224.589844 152.339844 223.339844 C 150.417969 222.089844 148.640625 220.664062 147 219.0625 C 139.457031 211.886719 135.449219 202.191406 135.089844 190.25 C 134.96875 187.535156 135.082031 184.832031 135.425781 182.136719 C 135.769531 179.441406 136.339844 176.796875 137.136719 174.199219 C 137.9375 171.605469 138.949219 169.09375 140.175781 166.671875 C 141.402344 164.25 142.828125 161.949219 144.449219 159.769531 C 152.304688 149.238281 163.355469 143.902344 177.320312 143.902344 C 187.726562 143.902344 196.113281 148.125 202.246094 156.449219 C 207.710938 163.890625 210.476562 173.167969 210.476562 184.09375 C 210.476562 195.976562 207.253906 206.273438 200.878906 214.699219 C 193.699219 224.167969 183.917969 228.972656 171.804688 228.972656 Z M 177.320312 146.113281 C 164.09375 146.113281 153.648438 151.152344 146.207031 161.097656 C 144.660156 163.175781 143.300781 165.371094 142.128906 167.683594 C 140.957031 169.992188 139.992188 172.390625 139.230469 174.867188 C 138.46875 177.34375 137.925781 179.867188 137.597656 182.441406 C 137.269531 185.011719 137.164062 187.589844 137.28125 190.179688 C 137.625 201.523438 141.398438 210.695312 148.5 217.457031 C 150.042969 218.964844 151.714844 220.300781 153.519531 221.476562 C 155.324219 222.652344 157.226562 223.636719 159.222656 224.433594 C 161.222656 225.234375 163.28125 225.828125 165.398438 226.21875 C 167.515625 226.609375 169.648438 226.789062 171.804688 226.757812 C 183.171875 226.757812 192.363281 222.246094 199.113281 213.359375 C 205.203125 205.332031 208.265625 195.484375 208.265625 184.09375 C 208.265625 173.648438 205.640625 164.789062 200.46875 157.761719 C 194.800781 150.039062 186.996094 146.113281 177.335938 146.113281 Z M 171.804688 209.070312 C 169.882812 209.085938 168.03125 208.730469 166.25 208.011719 C 164.464844 207.292969 162.890625 206.261719 161.515625 204.917969 C 157.875 201.488281 156.03125 196.539062 156.03125 190.199219 C 156.03125 183.621094 157.613281 177.777344 160.765625 172.832031 C 164.503906 166.871094 169.707031 163.847656 176.207031 163.847656 L 176.375 163.847656 C 178.027344 163.800781 179.617188 164.082031 181.144531 164.703125 C 182.675781 165.320312 184.015625 166.222656 185.167969 167.40625 C 189.015625 171.464844 190.675781 178.632812 190.242188 189.417969 C 189.976562 195.632812 187.875 200.644531 184 204.296875 C 182.351562 205.855469 180.476562 207.046875 178.367188 207.871094 C 176.257812 208.699219 174.070312 209.097656 171.804688 209.070312 Z M 176.171875 166.0625 C 170.410156 166.0625 165.964844 168.65625 162.644531 174.007812 C 159.722656 178.632812 158.273438 184.046875 158.273438 190.214844 C 158.273438 195.921875 159.886719 200.324219 163.070312 203.324219 C 164.238281 204.480469 165.585938 205.367188 167.109375 205.980469 C 168.636719 206.597656 170.21875 206.894531 171.863281 206.875 C 173.847656 206.90625 175.761719 206.5625 177.609375 205.84375 C 179.453125 205.121094 181.09375 204.074219 182.53125 202.707031 C 185.960938 199.460938 187.828125 194.960938 188.070312 189.335938 C 188.46875 179.332031 186.972656 172.464844 183.605469 168.949219 C 181.78125 167.027344 179.417969 166.085938 176.390625 166.074219 L 176.234375 166.074219 Z M 176.171875 166.0625 " fill-opacity="1" fill-rule="nonzero"/><path fill="#ffffff" d="M 303.5 158.03125 C 295.382812 178.804688 287.492188 197.597656 279.828125 214.410156 C 277.371094 219.585938 274.246094 224.320312 270.445312 228.613281 C 267.566406 231.910156 264.132812 233.261719 260.144531 232.671875 C 253.867188 231.71875 249.808594 224.402344 247.96875 210.714844 C 247.296875 205.503906 246.960938 195.894531 246.957031 181.894531 C 245.601562 184.167969 244.71875 185.6875 244.359375 186.480469 C 240.855469 192.925781 235.648438 202.957031 228.734375 216.578125 C 227.816406 218.632812 226.445312 220.316406 224.621094 221.632812 C 224.058594 222.433594 223.402344 223.144531 222.648438 223.765625 C 221.890625 224.386719 221.066406 224.894531 220.171875 225.289062 C 219.28125 225.6875 218.347656 225.957031 217.382812 226.097656 C 216.414062 226.242188 215.445312 226.25 214.476562 226.128906 C 212.113281 225.925781 209.949219 223.296875 207.988281 218.238281 C 205.878906 213.105469 204.480469 206.671875 203.789062 198.941406 C 203.152344 191.9375 202.742188 176.832031 202.550781 153.621094 C 202.457031 149.703125 202.625 145.796875 203.058594 141.898438 C 203.210938 140.480469 203.644531 139.148438 204.359375 137.914062 C 205.078125 136.675781 206.011719 135.636719 207.171875 134.796875 C 208.289062 133.945312 209.53125 133.339844 210.890625 132.988281 C 212.253906 132.636719 213.632812 132.5625 215.023438 132.769531 C 220.433594 133.492188 223.367188 136.871094 223.816406 142.914062 C 224.0625 146.765625 224.105469 150.617188 223.945312 154.472656 C 223.675781 161.015625 223.535156 164.871094 223.53125 166.039062 C 223.609375 170.40625 223.671875 177.523438 223.722656 187.394531 C 228.910156 176.773438 235.011719 163.515625 242.019531 147.617188 C 245.019531 140.769531 249.34375 137.726562 254.984375 138.476562 C 260.527344 139.222656 263.636719 143.679688 264.316406 151.855469 C 264.820312 157.613281 265.171875 165.054688 265.375 174.175781 C 265.679688 187.433594 265.890625 195.324219 266.007812 197.851562 C 266.6875 196.214844 272.839844 180.089844 284.46875 149.484375 C 286.195312 144.917969 289.628906 142.984375 294.777344 143.671875 C 296.183594 143.855469 297.503906 144.296875 298.734375 145 C 299.96875 145.703125 301.023438 146.613281 301.898438 147.730469 C 302.832031 148.839844 303.496094 150.089844 303.886719 151.484375 C 304.277344 152.878906 304.359375 154.292969 304.136719 155.726562 C 304.007812 156.515625 303.796875 157.285156 303.5 158.03125 Z M 303.5 158.03125 " fill-opacity="1" fill-rule="nonzero"/><path fill="#000000" d="M 261.949219 233.914062 C 261.300781 233.914062 260.652344 233.863281 260.011719 233.765625 C 253.117188 232.726562 248.835938 225.230469 246.921875 210.871094 C 246.3125 206.136719 245.976562 197.78125 245.90625 185.980469 C 245.691406 186.378906 245.523438 186.703125 245.414062 186.949219 C 245.414062 186.949219 245.414062 186.996094 245.378906 187.015625 C 241.882812 193.433594 236.632812 203.550781 229.769531 217.085938 C 228.789062 219.246094 227.347656 221.035156 225.445312 222.449219 C 224.824219 223.304688 224.101562 224.0625 223.277344 224.722656 C 222.449219 225.386719 221.554688 225.925781 220.582031 226.347656 C 219.613281 226.769531 218.605469 227.054688 217.558594 227.207031 C 216.511719 227.355469 215.464844 227.367188 214.414062 227.238281 C 211.574219 226.988281 209.144531 224.183594 206.976562 218.640625 C 204.84375 213.449219 203.402344 206.847656 202.707031 199.027344 C 202.070312 192.039062 201.652344 176.753906 201.460938 153.613281 C 201.375 149.644531 201.546875 145.679688 201.976562 141.730469 C 202.152344 140.160156 202.632812 138.695312 203.429688 137.332031 C 204.222656 135.964844 205.257812 134.820312 206.535156 133.890625 C 207.773438 132.957031 209.140625 132.300781 210.640625 131.917969 C 212.144531 131.535156 213.660156 131.457031 215.191406 131.6875 C 221.152344 132.484375 224.425781 136.230469 224.933594 142.820312 C 225.179688 146.710938 225.222656 150.605469 225.0625 154.5 C 224.796875 161.007812 224.664062 164.882812 224.65625 166.039062 C 224.714844 169.671875 224.769531 175.238281 224.816406 182.613281 C 229.550781 172.789062 234.964844 160.894531 241.015625 147.164062 C 244.230469 139.84375 248.976562 136.550781 255.148438 137.375 C 261.316406 138.199219 264.710938 143.035156 265.433594 151.761719 C 265.933594 157.511719 266.285156 165.039062 266.488281 174.128906 C 266.679688 182.179688 266.828125 188.28125 266.949219 192.390625 C 269.65625 185.335938 275.113281 171.003906 283.445312 149.105469 C 285.347656 144.085938 289.316406 141.832031 294.945312 142.582031 C 296.488281 142.785156 297.941406 143.269531 299.292969 144.039062 C 300.648438 144.8125 301.808594 145.808594 302.769531 147.035156 C 303.804688 148.257812 304.535156 149.644531 304.972656 151.183594 C 305.40625 152.726562 305.5 154.289062 305.257812 155.875 C 305.101562 156.765625 304.847656 157.625 304.496094 158.457031 C 296.378906 179.128906 288.445312 198.113281 280.820312 214.886719 C 278.332031 220.160156 275.164062 224.984375 271.3125 229.363281 C 268.648438 232.386719 265.507812 233.914062 261.949219 233.914062 Z M 247.003906 180.792969 C 247.105469 180.792969 247.203125 180.804688 247.300781 180.832031 C 247.539062 180.902344 247.734375 181.035156 247.886719 181.230469 C 248.035156 181.429688 248.109375 181.652344 248.113281 181.902344 C 248.113281 195.78125 248.449219 205.425781 249.113281 210.582031 C 250.859375 223.648438 254.632812 230.714844 260.335938 231.546875 C 263.953125 232.082031 267.003906 230.871094 269.640625 227.863281 C 273.367188 223.644531 276.433594 218.996094 278.847656 213.914062 C 286.449219 197.179688 294.402344 178.234375 302.464844 157.597656 C 302.753906 156.929688 302.964844 156.238281 303.09375 155.523438 C 303.296875 154.238281 303.21875 152.972656 302.863281 151.726562 C 302.511719 150.476562 301.910156 149.359375 301.066406 148.375 C 300.28125 147.363281 299.335938 146.542969 298.222656 145.910156 C 297.113281 145.277344 295.921875 144.878906 294.652344 144.722656 C 290.054688 144.097656 287.066406 145.769531 285.53125 149.828125 C 273.78125 180.75 267.734375 196.585938 267.058594 198.230469 C 266.960938 198.472656 266.800781 198.65625 266.574219 198.785156 C 266.34375 198.910156 266.101562 198.953125 265.847656 198.90625 C 265.589844 198.863281 265.378906 198.742188 265.207031 198.550781 C 265.035156 198.355469 264.941406 198.128906 264.925781 197.871094 C 264.8125 195.335938 264.59375 187.359375 264.292969 174.199219 C 264.089844 165.148438 263.738281 157.667969 263.242188 151.964844 C 262.605469 144.300781 259.859375 140.257812 254.863281 139.585938 C 249.722656 138.910156 245.859375 141.671875 243.058594 148.0625 C 236.105469 163.894531 229.972656 177.28125 224.769531 187.886719 C 224.65625 188.117188 224.484375 188.289062 224.253906 188.398438 C 224.019531 188.507812 223.777344 188.535156 223.527344 188.476562 C 223.277344 188.421875 223.074219 188.292969 222.914062 188.09375 C 222.75 187.890625 222.667969 187.664062 222.667969 187.40625 C 222.621094 177.640625 222.558594 170.457031 222.484375 166.066406 C 222.484375 164.851562 222.621094 161.046875 222.890625 154.433594 C 223.046875 150.621094 223.007812 146.8125 222.769531 143.003906 C 222.34375 137.523438 219.785156 134.542969 214.941406 133.890625 C 213.695312 133.699219 212.457031 133.761719 211.234375 134.070312 C 210.007812 134.382812 208.894531 134.917969 207.886719 135.683594 C 206.851562 136.433594 206.011719 137.363281 205.371094 138.46875 C 204.730469 139.578125 204.347656 140.769531 204.214844 142.042969 C 203.796875 145.886719 203.632812 149.742188 203.722656 153.609375 C 203.902344 176.695312 204.324219 191.910156 204.953125 198.84375 C 205.628906 206.425781 207.015625 212.8125 209.070312 217.824219 C 210.84375 222.382812 212.765625 224.871094 214.632812 225.035156 C 215.507812 225.148438 216.382812 225.140625 217.257812 225.011719 C 218.128906 224.886719 218.972656 224.644531 219.777344 224.285156 C 220.585938 223.929688 221.328125 223.46875 222.011719 222.90625 C 222.691406 222.34375 223.285156 221.699219 223.789062 220.976562 C 223.863281 220.886719 223.945312 220.808594 224.039062 220.738281 C 225.695312 219.53125 226.945312 217.992188 227.78125 216.121094 C 234.660156 202.59375 239.914062 192.445312 243.417969 186 C 243.804688 185.160156 244.667969 183.632812 246.054688 181.332031 C 246.269531 180.972656 246.585938 180.792969 247.003906 180.792969 Z M 303.5 158.03125 Z M 303.5 158.03125 " fill-opacity="1" fill-rule="nonzero"/><path fill="#000000" d="M 301.992188 206.617188 C 301.507812 206.34375 301.082031 205.992188 300.722656 205.566406 C 300.363281 205.140625 300.085938 204.664062 299.898438 204.140625 C 299.707031 203.613281 299.613281 203.074219 299.617188 202.515625 C 299.625 201.957031 299.726562 201.417969 299.921875 200.894531 C 305.410156 186.40625 325.355469 134.96875 331.617188 136.171875 C 338.867188 137.566406 356.753906 143.578125 356.453125 148.875 C 356.203125 153.40625 322.722656 196.335938 313.234375 208.429688 C 312.886719 208.867188 312.476562 209.234375 312 209.523438 C 311.523438 209.816406 311.011719 210.015625 310.460938 210.125 C 309.914062 210.230469 309.363281 210.242188 308.8125 210.152344 C 308.261719 210.0625 307.742188 209.882812 307.253906 209.605469 Z M 301.992188 206.617188 " fill-opacity="1" fill-rule="nonzero"/><path fill="#000000" d="M 304.480469 222.332031 C 304.753906 222.878906 304.972656 223.445312 305.132812 224.035156 C 305.296875 224.625 305.398438 225.226562 305.441406 225.835938 C 305.484375 226.445312 305.46875 227.054688 305.390625 227.660156 C 305.316406 228.265625 305.179688 228.859375 304.988281 229.441406 C 304.792969 230.019531 304.546875 230.578125 304.242188 231.109375 C 303.941406 231.640625 303.589844 232.136719 303.1875 232.597656 C 302.789062 233.058594 302.347656 233.476562 301.863281 233.851562 C 301.378906 234.226562 300.863281 234.550781 300.316406 234.828125 C 299.769531 235.101562 299.203125 235.316406 298.613281 235.480469 C 298.023438 235.640625 297.421875 235.742188 296.8125 235.785156 C 296.203125 235.828125 295.59375 235.8125 294.988281 235.738281 C 294.378906 235.660156 293.789062 235.527344 293.207031 235.332031 C 292.625 235.140625 292.070312 234.890625 291.539062 234.589844 C 291.007812 234.285156 290.511719 233.933594 290.050781 233.53125 C 289.585938 233.132812 289.167969 232.691406 288.792969 232.207031 C 288.417969 231.722656 288.09375 231.210938 287.820312 230.664062 C 287.546875 230.113281 287.332031 229.546875 287.167969 228.957031 C 287.007812 228.367188 286.90625 227.765625 286.859375 227.15625 C 286.816406 226.546875 286.835938 225.9375 286.910156 225.332031 C 286.988281 224.726562 287.121094 224.132812 287.316406 223.550781 C 287.507812 222.972656 287.757812 222.414062 288.058594 221.882812 C 288.363281 221.351562 288.714844 220.855469 289.113281 220.394531 C 289.515625 219.933594 289.957031 219.515625 290.441406 219.140625 C 290.921875 218.765625 291.4375 218.441406 291.984375 218.167969 C 292.53125 217.890625 293.101562 217.675781 293.691406 217.511719 C 294.28125 217.351562 294.878906 217.25 295.492188 217.207031 C 296.101562 217.164062 296.707031 217.179688 297.316406 217.253906 C 297.921875 217.332031 298.515625 217.464844 299.097656 217.660156 C 299.675781 217.851562 300.230469 218.101562 300.761719 218.40625 C 301.292969 218.707031 301.792969 219.058594 302.253906 219.460938 C 302.714844 219.859375 303.132812 220.300781 303.507812 220.785156 C 303.882812 221.269531 304.207031 221.785156 304.480469 222.332031 Z M 304.480469 222.332031 " fill-opacity="1" fill-rule="nonzero"/><path fill="#ffffff" d="M 297.195312 203.296875 C 296.710938 203.019531 296.289062 202.671875 295.925781 202.246094 C 295.566406 201.820312 295.292969 201.34375 295.101562 200.816406 C 294.910156 200.292969 294.820312 199.75 294.824219 199.191406 C 294.828125 198.636719 294.929688 198.09375 295.128906 197.574219 C 300.613281 183.085938 320.558594 131.652344 326.824219 132.851562 C 334.101562 134.242188 351.957031 140.257812 351.652344 145.539062 C 351.402344 150.070312 317.921875 193.007812 308.433594 205.09375 C 308.085938 205.535156 307.675781 205.898438 307.199219 206.191406 C 306.722656 206.480469 306.207031 206.679688 305.660156 206.789062 C 305.113281 206.898438 304.5625 206.90625 304.011719 206.816406 C 303.457031 206.730469 302.9375 206.546875 302.453125 206.273438 Z M 297.195312 203.296875 " fill-opacity="1" fill-rule="nonzero"/><path fill="#000000" d="M 304.773438 207.996094 C 303.75 207.992188 302.796875 207.738281 301.910156 207.230469 L 296.65625 204.257812 C 296.054688 203.917969 295.527344 203.488281 295.082031 202.960938 C 294.632812 202.433594 294.292969 201.847656 294.054688 201.195312 C 293.820312 200.546875 293.707031 199.875 293.710938 199.183594 C 293.71875 198.496094 293.84375 197.828125 294.09375 197.179688 C 296.59375 190.578125 303.117188 173.621094 309.648438 158.878906 C 320.640625 134.164062 324.597656 131.300781 327.003906 131.761719 C 332.796875 132.871094 353.121094 138.898438 352.742188 145.605469 C 352.6875 146.574219 352.558594 148.855469 334.371094 173.148438 C 324.664062 186.15625 313.597656 200.277344 309.296875 205.777344 C 308.753906 206.476562 308.085938 207.019531 307.292969 207.410156 C 306.496094 207.800781 305.65625 207.996094 304.773438 207.996094 Z M 297.746094 202.308594 L 303 205.277344 C 303.371094 205.492188 303.765625 205.632812 304.1875 205.703125 C 304.609375 205.773438 305.027344 205.765625 305.445312 205.683594 C 305.867188 205.601562 306.257812 205.449219 306.621094 205.226562 C 306.984375 205 307.296875 204.722656 307.558594 204.382812 C 333.457031 171.445312 350.320312 148.3125 350.550781 145.492188 C 350.585938 144.847656 350.050781 142.453125 341.636719 138.761719 C 336.789062 136.660156 331.78125 135.054688 326.613281 133.953125 C 326.613281 133.953125 325.160156 133.761719 320.957031 140.988281 C 317.550781 147.097656 314.464844 153.367188 311.691406 159.789062 C 305.164062 174.488281 298.660156 191.390625 296.136719 197.980469 C 295.988281 198.375 295.917969 198.785156 295.917969 199.210938 C 295.917969 199.632812 295.992188 200.042969 296.140625 200.441406 C 296.289062 200.835938 296.5 201.195312 296.777344 201.519531 C 297.050781 201.839844 297.375 202.101562 297.746094 202.308594 Z M 297.746094 202.308594 " fill-opacity="1" fill-rule="nonzero"/><path fill="#ffffff" d="M 299.6875 219.007812 C 299.960938 219.554688 300.179688 220.125 300.339844 220.714844 C 300.503906 221.304688 300.605469 221.90625 300.648438 222.515625 C 300.691406 223.125 300.675781 223.734375 300.597656 224.339844 C 300.523438 224.945312 300.386719 225.539062 300.195312 226.121094 C 300 226.699219 299.753906 227.253906 299.449219 227.789062 C 299.148438 228.320312 298.796875 228.816406 298.394531 229.277344 C 297.992188 229.738281 297.550781 230.15625 297.070312 230.53125 C 296.585938 230.90625 296.070312 231.230469 295.523438 231.503906 C 294.976562 231.777344 294.410156 231.996094 293.820312 232.15625 C 293.230469 232.320312 292.628906 232.421875 292.019531 232.464844 C 291.410156 232.507812 290.800781 232.492188 290.195312 232.417969 C 289.585938 232.339844 288.992188 232.203125 288.414062 232.011719 C 287.832031 231.816406 287.277344 231.570312 286.746094 231.265625 C 286.214844 230.964844 285.71875 230.613281 285.257812 230.210938 C 284.792969 229.8125 284.375 229.371094 284 228.886719 C 283.625 228.402344 283.300781 227.886719 283.027344 227.339844 C 282.753906 226.792969 282.535156 226.226562 282.375 225.636719 C 282.214844 225.046875 282.109375 224.445312 282.066406 223.835938 C 282.023438 223.226562 282.039062 222.617188 282.117188 222.011719 C 282.195312 221.40625 282.328125 220.8125 282.523438 220.230469 C 282.714844 219.652344 282.964844 219.09375 283.265625 218.5625 C 283.570312 218.03125 283.921875 217.535156 284.320312 217.074219 C 284.722656 216.613281 285.164062 216.191406 285.648438 215.816406 C 286.128906 215.441406 286.644531 215.117188 287.191406 214.84375 C 287.738281 214.570312 288.308594 214.355469 288.898438 214.191406 C 289.488281 214.03125 290.085938 213.929688 290.695312 213.886719 C 291.308594 213.839844 291.914062 213.859375 292.523438 213.933594 C 293.128906 214.011719 293.722656 214.144531 294.300781 214.339844 C 294.882812 214.53125 295.4375 214.78125 295.96875 215.082031 C 296.5 215.386719 296.996094 215.738281 297.460938 216.140625 C 297.921875 216.539062 298.339844 216.980469 298.714844 217.464844 C 299.089844 217.949219 299.414062 218.460938 299.6875 219.007812 Z M 299.6875 219.007812 " fill-opacity="1" fill-rule="nonzero"/><path fill="#000000" d="M 291.367188 233.632812 C 290.355469 233.628906 289.367188 233.484375 288.398438 233.199219 C 287.742188 233.003906 287.109375 232.75 286.503906 232.429688 C 285.898438 232.113281 285.328125 231.738281 284.796875 231.308594 C 284.265625 230.878906 283.777344 230.398438 283.339844 229.875 C 282.902344 229.347656 282.519531 228.785156 282.191406 228.183594 C 281.867188 227.582031 281.601562 226.953125 281.398438 226.300781 C 281.191406 225.648438 281.054688 224.980469 280.984375 224.300781 C 280.910156 223.621094 280.90625 222.9375 280.96875 222.257812 C 281.03125 221.574219 281.15625 220.90625 281.351562 220.25 C 281.546875 219.59375 281.800781 218.960938 282.121094 218.355469 C 282.4375 217.75 282.8125 217.179688 283.242188 216.648438 C 283.671875 216.117188 284.152344 215.632812 284.675781 215.191406 C 285.203125 214.753906 285.765625 214.371094 286.367188 214.046875 C 286.96875 213.71875 287.597656 213.453125 288.25 213.25 C 288.902344 213.046875 289.570312 212.910156 290.25 212.835938 C 290.933594 212.765625 291.613281 212.757812 292.296875 212.820312 C 292.976562 212.882812 293.644531 213.011719 294.300781 213.207031 C 294.957031 213.398438 295.589844 213.65625 296.195312 213.972656 C 296.800781 214.292969 297.371094 214.667969 297.902344 215.097656 C 298.433594 215.527344 298.921875 216.007812 299.359375 216.53125 C 299.796875 217.058594 300.179688 217.621094 300.503906 218.222656 C 300.832031 218.824219 301.097656 219.453125 301.300781 220.105469 C 301.503906 220.757812 301.640625 221.425781 301.714844 222.105469 C 301.785156 222.789062 301.789062 223.46875 301.726562 224.148438 C 301.664062 224.832031 301.539062 225.5 301.34375 226.15625 C 301.183594 226.691406 300.984375 227.210938 300.746094 227.714844 C 300.503906 228.21875 300.222656 228.699219 299.90625 229.15625 C 299.585938 229.613281 299.234375 230.042969 298.84375 230.445312 C 298.457031 230.847656 298.042969 231.214844 297.59375 231.546875 C 297.148438 231.882812 296.679688 232.179688 296.183594 232.4375 C 295.691406 232.699219 295.179688 232.914062 294.648438 233.09375 C 294.121094 233.269531 293.578125 233.402344 293.03125 233.492188 C 292.480469 233.582031 291.925781 233.628906 291.367188 233.632812 Z M 291.367188 214.988281 C 290.859375 214.992188 290.359375 215.039062 289.863281 215.132812 C 289.363281 215.226562 288.878906 215.363281 288.410156 215.546875 C 287.9375 215.730469 287.484375 215.953125 287.054688 216.21875 C 286.625 216.488281 286.222656 216.789062 285.851562 217.128906 C 285.476562 217.472656 285.136719 217.84375 284.832031 218.246094 C 284.527344 218.648438 284.257812 219.078125 284.035156 219.53125 C 283.808594 219.984375 283.625 220.453125 283.484375 220.9375 C 283.347656 221.425781 283.253906 221.921875 283.203125 222.425781 C 283.15625 222.925781 283.15625 223.429688 283.199219 223.933594 C 283.246094 224.4375 283.335938 224.933594 283.472656 225.421875 C 283.609375 225.910156 283.789062 226.378906 284.015625 226.832031 C 284.238281 227.285156 284.5 227.714844 284.804688 228.121094 C 285.109375 228.527344 285.445312 228.898438 285.816406 229.242188 C 286.191406 229.585938 286.589844 229.890625 287.019531 230.160156 C 287.449219 230.429688 287.898438 230.65625 288.367188 230.839844 C 288.839844 231.027344 289.324219 231.167969 289.820312 231.261719 C 290.316406 231.359375 290.816406 231.410156 291.324219 231.414062 C 291.828125 231.414062 292.332031 231.371094 292.828125 231.285156 C 293.328125 231.195312 293.8125 231.058594 294.285156 230.878906 C 294.757812 230.703125 295.210938 230.480469 295.644531 230.21875 C 296.078125 229.953125 296.480469 229.65625 296.859375 229.316406 C 297.234375 228.980469 297.578125 228.609375 297.886719 228.210938 C 298.195312 227.808594 298.464844 227.382812 298.695312 226.933594 C 298.921875 226.480469 299.109375 226.011719 299.253906 225.527344 C 299.40625 225.011719 299.503906 224.484375 299.554688 223.949219 C 299.601562 223.410156 299.597656 222.875 299.539062 222.339844 C 299.484375 221.804688 299.375 221.277344 299.214844 220.765625 C 299.054688 220.25 298.84375 219.753906 298.585938 219.28125 C 298.328125 218.808594 298.027344 218.367188 297.683594 217.953125 C 297.339844 217.535156 296.957031 217.160156 296.539062 216.820312 C 296.121094 216.480469 295.671875 216.1875 295.195312 215.933594 C 294.71875 215.683594 294.222656 215.480469 293.707031 215.328125 C 292.933594 215.101562 292.144531 214.988281 291.339844 214.988281 Z M 291.367188 214.988281 " fill-opacity="1" fill-rule="nonzero"/><path fill="#383838" d="M 90.980469 263.730469 C 90.753906 265.027344 89.777344 266.082031 88.839844 266.949219 C 87.898438 267.816406 86.902344 268.632812 85.9375 269.480469 C 76.183594 277.746094 66.039062 285.519531 55.5 292.800781 C 51.304688 295.722656 47.050781 298.5625 42.648438 301.207031 C 55.910156 289.160156 70.296875 278.433594 85.164062 268.472656 L 88.386719 266.386719 C 89.515625 265.765625 90.378906 264.878906 90.96875 263.730469 Z M 90.980469 263.730469 " fill-opacity="1" fill-rule="nonzero"/><path fill="#383838" d="M 95.046875 272.183594 C 89.574219 279.976562 83.714844 287.464844 77.460938 294.648438 C 71.308594 301.917969 64.785156 308.84375 57.898438 315.425781 C 63.371094 307.625 69.230469 300.128906 75.484375 292.941406 C 81.648438 285.679688 88.167969 278.753906 95.046875 272.164062 Z M 95.046875 272.183594 " fill-opacity="1" fill-rule="nonzero"/><path fill="#383838" d="M 259.285156 269.269531 C 260.640625 269.34375 261.769531 270.183594 262.734375 271.015625 C 263.703125 271.847656 264.644531 272.734375 265.597656 273.589844 C 274.972656 282.285156 283.90625 291.417969 292.402344 300.984375 C 295.785156 304.808594 299.164062 308.6875 302.289062 312.746094 C 288.761719 301.019531 276.363281 288.03125 264.683594 274.464844 L 262.226562 271.515625 C 261.476562 270.46875 260.496094 269.71875 259.285156 269.269531 Z M 259.285156 269.269531 " fill-opacity="1" fill-rule="nonzero"/><path fill="#383838" d="M 267.171875 264.191406 C 275.566406 268.695312 283.707031 273.621094 291.589844 278.96875 C 299.550781 284.203125 307.21875 289.839844 314.585938 295.878906 C 306.191406 291.382812 298.050781 286.460938 290.167969 281.113281 C 282.214844 275.871094 274.546875 270.234375 267.171875 264.203125 Z M 267.171875 264.191406 " fill-opacity="1" fill-rule="nonzero"/><path fill="#383838" d="M 249.585938 111.050781 C 249.453125 109.738281 250.085938 108.460938 250.75 107.363281 C 251.414062 106.269531 252.101562 105.207031 252.832031 104.125 C 259.890625 93.464844 267.453125 83.167969 275.519531 73.234375 C 278.738281 69.265625 282.027344 65.339844 285.523438 61.574219 C 276.148438 76.847656 265.332031 91.160156 253.839844 104.863281 L 251.332031 107.761719 C 250.414062 108.679688 249.832031 109.777344 249.585938 111.050781 Z M 249.585938 111.050781 " fill-opacity="1" fill-rule="nonzero"/><path fill="#383838" d="M 243.332031 104.070312 C 246.417969 95.0625 249.964844 86.234375 253.964844 77.589844 C 257.84375 68.882812 262.167969 60.402344 266.9375 52.152344 C 263.859375 61.167969 260.316406 69.996094 256.308594 78.636719 C 252.425781 87.335938 248.097656 95.804688 243.332031 104.050781 Z M 243.332031 104.070312 " fill-opacity="1" fill-rule="nonzero"/><g clip-path="url(#1a9e1b5c5a)"><path fill="#383838" d="M 95.617188 103.828125 C 94.378906 103.265625 93.4375 102.386719 92.789062 101.195312 C 92.113281 100.105469 91.433594 99.011719 90.757812 97.921875 C 84.160156 86.96875 78.109375 75.714844 72.605469 64.164062 C 70.398438 59.550781 68.277344 54.898438 66.375 50.121094 C 76.136719 65.144531 84.414062 81.058594 91.867188 97.339844 L 93.410156 100.851562 C 93.84375 102.066406 94.578125 103.058594 95.617188 103.828125 Z M 95.617188 103.828125 " fill-opacity="1" fill-rule="nonzero"/></g><path fill="#383838" d="M 86.621094 106.484375 C 79.808594 99.828125 73.359375 92.839844 67.269531 85.515625 C 61.082031 78.269531 55.292969 70.71875 49.898438 62.863281 C 56.714844 69.515625 63.160156 76.507812 69.242188 83.832031 C 75.425781 91.078125 81.21875 98.625 86.621094 106.472656 Z M 86.621094 106.484375 " fill-opacity="1" fill-rule="nonzero"/><path fill="#000000" d="M 276.3125 106.355469 L 296.664062 90.394531 C 296.664062 90.394531 304.429688 96.480469 305.457031 104.875 Z M 276.3125 106.355469 " fill-opacity="1" fill-rule="nonzero"/><g clip-path="url(#de48931e8e)"><path fill="#000000" d="M 45.605469 256.722656 L 31.042969 278.101562 C 31.042969 278.101562 21.796875 274.632812 18.265625 266.96875 Z M 45.605469 256.722656 " fill-opacity="1" fill-rule="nonzero"/></g><g clip-path="url(#1be2d1aa9b)"><path fill="#000000" d="M 255.980469 295.296875 L 267.429688 318.496094 C 267.429688 318.496094 259.859375 324.839844 251.453125 324.136719 Z M 255.980469 295.296875 " fill-opacity="1" fill-rule="nonzero"/></g></svg>